<svg xmlns="http://www.w3.org/2000/svg" width="14.683" height="13.914" viewBox="0 0 14.683 13.914">
  <g id="Group_72108" data-name="Group 72108" transform="translate(-63 -11.237)">
    <g id="Group_72108-2" data-name="Group 72108" transform="translate(63 11.237)">
      <path id="Path_71801" data-name="Path 71801" d="M-1408,204.586a.993.993,0,0,1,.731.377,1.866,1.866,0,0,0,1.478.711,1.863,1.863,0,0,0,1.457-.658.934.934,0,0,1,1.234-.3,7.2,7.2,0,0,1,1.966,1.158.9.9,0,0,1,.3,1.067,1.91,1.91,0,0,0,1.488,2.564.9.9,0,0,1,.793.791,6.664,6.664,0,0,1-.011,2.491.916.916,0,0,1-.787.748,1.9,1.9,0,0,0-1.527,2.6.9.9,0,0,1-.291,1.094,7.348,7.348,0,0,1-1.882,1.123.9.9,0,0,1-1.095-.286,1.9,1.9,0,0,0-3.093.039.9.9,0,0,1-1.112.317,7.357,7.357,0,0,1-2.017-1.161.9.9,0,0,1-.293-1.141,1.907,1.907,0,0,0-.684-2.35,1.851,1.851,0,0,0-.792-.3.917.917,0,0,1-.906-.885,6.75,6.75,0,0,1,.059-2.4.9.9,0,0,1,.824-.742,1.9,1.9,0,0,0,1.571-2.588.909.909,0,0,1,.323-1.111,7.209,7.209,0,0,1,1.913-1.069A3.191,3.191,0,0,1-1408,204.586Zm4.668,6.958a2.45,2.45,0,0,0-2.428-2.442,2.449,2.449,0,0,0-2.466,2.435,2.448,2.448,0,0,0,2.444,2.457A2.449,2.449,0,0,0-1403.332,211.544Z" transform="translate(1413.123 -204.586)" fill="#a77719"/>
    </g>
    <path id="Path_71803" data-name="Path 71803" d="M-362.229,410.087a2.113,2.113,0,0,1-2.1,2.11,2.114,2.114,0,0,1-2.118-2.092,2.11,2.11,0,0,1,2.121-2.132A2.112,2.112,0,0,1-362.229,410.087Z" transform="translate(434.679 -391.876)" fill="#a77719"/>
  </g>
</svg>
