<svg id="Group_72278" data-name="Group 72278" xmlns="http://www.w3.org/2000/svg" xmlns:xlink="http://www.w3.org/1999/xlink" width="13.882" height="15.031" viewBox="0 0 13.882 15.031">
  <defs>
    <clipPath id="clip-path">
      <rect id="Rectangle_9040" data-name="Rectangle 9040" width="13.882" height="15.031" fill="#a77719"/>
    </clipPath>
  </defs>
  <g id="Group_72277" data-name="Group 72277" clip-path="url(#clip-path)">
    <path id="Path_71804" data-name="Path 71804" d="M13.853,5.217c0,.754.047,1.512-.009,2.261a7.445,7.445,0,0,1-2.456,5.032,9.276,9.276,0,0,1-1.967,1.33c-.61.33-1.215.67-1.82,1.008a1.272,1.272,0,0,1-1.33-.007c-.9-.511-1.837-.973-2.71-1.531a7.44,7.44,0,0,1-3.494-5.5A7.984,7.984,0,0,1,0,6.784C0,5.613,0,4.443,0,3.272A1.258,1.258,0,0,1,1.218,1.936a12.188,12.188,0,0,0,5-1.711A1.278,1.278,0,0,1,7.648.214a12.357,12.357,0,0,0,4.7,1.683c.17.025.343.037.512.069a1.226,1.226,0,0,1,1.02,1.221c0,.677,0,1.353,0,2.03h-.028M6.54,7.575c-.364-.323-.71-.636-1.063-.941A.711.711,0,1,0,4.539,7.7q.765.681,1.532,1.359a.708.708,0,0,0,1.065-.041q1.3-1.379,2.6-2.766a.713.713,0,1,0-1.041-.967Q8.168,5.841,7.645,6.4L6.54,7.575" transform="translate(0 -0.001)" fill="#a77719"/>
  </g>
</svg>
