<svg xmlns="http://www.w3.org/2000/svg" xmlns:xlink="http://www.w3.org/1999/xlink" width="275.445" height="202.403" viewBox="0 0 275.445 202.403">
  <defs>
    <clipPath id="clip-path">
      <rect id="Rectangle_11125" data-name="Rectangle 11125" width="275.445" height="202.403" fill="none"/>
    </clipPath>
  </defs>
  <g id="Group_73193" data-name="Group 73193" transform="translate(0 -0.004)">
    <path id="Path_76215" data-name="Path 76215" d="M1700.387,3242.1v-9.573h1.371v8.2h2.716v1.371Z" transform="translate(-1603.228 -3047.822)" fill="#01172d"/>
    <g id="Group_73192" data-name="Group 73192" transform="translate(0 0.004)">
      <g id="Group_73191" data-name="Group 73191" clip-path="url(#clip-path)">
        <path id="Path_76216" data-name="Path 76216" d="M1787.867,3233.459a2.437,2.437,0,0,1,.2-1.022,2.149,2.149,0,0,1,.538-.739,2.261,2.261,0,0,1,.732-.43,2.441,2.441,0,0,1,2.4.43,2.235,2.235,0,0,1,.524.739,2.444,2.444,0,0,1,.2,1.022v5.055a2.422,2.422,0,0,1-.2,1.035,2.126,2.126,0,0,1-.524.713,2.3,2.3,0,0,1-.746.444,2.385,2.385,0,0,1-1.654,0,2.157,2.157,0,0,1-.732-.444,2.049,2.049,0,0,1-.538-.713,2.415,2.415,0,0,1-.2-1.035Zm1.372,5.055a.913.913,0,0,0,.275.733,1.023,1.023,0,0,0,1.3,0,.913.913,0,0,0,.275-.733v-5.055a.912.912,0,0,0-.275-.732,1.022,1.022,0,0,0-1.3,0,.912.912,0,0,0-.275.732Z" transform="translate(-1685.709 -3046.496)" fill="#01172d"/>
        <path id="Path_76217" data-name="Path 76217" d="M1892.719,3233.821v2.984h.779a1.377,1.377,0,0,0,.578-.1.782.782,0,0,0,.336-.289,1.31,1.31,0,0,0,.148-.464,5.051,5.051,0,0,0,0-1.277,1.279,1.279,0,0,0-.161-.477,1.091,1.091,0,0,0-.968-.377Zm-1.372,8.282v-9.573h2.2q2.42,0,2.42,2.81a3.546,3.546,0,0,1-.262,1.439,2.031,2.031,0,0,1-.921.954l1.479,4.37h-1.452l-1.277-4.087h-.82v4.087Z" transform="translate(-1783.277 -3047.826)" fill="#01172d"/>
        <path id="Path_76218" data-name="Path 76218" d="M1993.407,3242.1v-9.573h4.087v1.291h-2.716v2.81h2.366v1.29h-2.366v2.81h2.716v1.371Z" transform="translate(-1879.505 -3047.826)" fill="#01172d"/>
        <path id="Path_76219" data-name="Path 76219" d="M2082.3,3242.1v-9.573h1.317l1.761,5.069h.028l1.747-5.069h1.332v9.573h-1.371v-5.821h-.027l-1.359,4.114h-.686l-1.344-4.114h-.027v5.821Z" transform="translate(-1963.316 -3047.826)" fill="#01172d"/>
        <rect id="Rectangle_11120" data-name="Rectangle 11120" width="1.371" height="9.573" transform="translate(129.207 184.704)" fill="#01172d"/>
        <path id="Path_76220" data-name="Path 76220" d="M2310.377,3242.1v-9.573h2.057a3.05,3.05,0,0,1,1,.148,1.907,1.907,0,0,1,.78.524,2.049,2.049,0,0,1,.484.881,5.494,5.494,0,0,1,.135,1.365,6.76,6.76,0,0,1-.074,1.089,2.272,2.272,0,0,1-.316.834,2,2,0,0,1-.752.732,2.535,2.535,0,0,1-1.237.262h-.7v3.738Zm1.371-8.282v3.254h.659a1.4,1.4,0,0,0,.646-.121.765.765,0,0,0,.336-.336,1.231,1.231,0,0,0,.127-.5c.013-.2.021-.417.021-.659q0-.336-.014-.638a1.368,1.368,0,0,0-.121-.531.761.761,0,0,0-.322-.349,1.279,1.279,0,0,0-.619-.121Z" transform="translate(-2178.364 -3047.826)" fill="#01172d"/>
        <path id="Path_76221" data-name="Path 76221" d="M2407.973,3233.957H2406.6v-.31a1.463,1.463,0,0,0-.222-.813.819.819,0,0,0-.746-.343.864.864,0,0,0-.457.107.906.906,0,0,0-.283.269,1.137,1.137,0,0,0-.147.4,2.569,2.569,0,0,0-.041.464,4.464,4.464,0,0,0,.02.47.885.885,0,0,0,.1.336.734.734,0,0,0,.235.256,2.172,2.172,0,0,0,.423.216l1.049.417a2.594,2.594,0,0,1,.739.41,1.781,1.781,0,0,1,.444.545,2.543,2.543,0,0,1,.2.732,7.206,7.206,0,0,1,.054.935,4.946,4.946,0,0,1-.121,1.122,2.361,2.361,0,0,1-.391.881,1.929,1.929,0,0,1-.739.592,2.608,2.608,0,0,1-1.116.215,2.441,2.441,0,0,1-.927-.175,2.2,2.2,0,0,1-.74-.484,2.343,2.343,0,0,1-.49-.719,2.178,2.178,0,0,1-.182-.894v-.511h1.371v.43a1.117,1.117,0,0,0,.222.679.861.861,0,0,0,.745.3,1.209,1.209,0,0,0,.544-.1.732.732,0,0,0,.3-.289,1.072,1.072,0,0,0,.127-.45q.02-.262.02-.585a5.747,5.747,0,0,0-.027-.618,1.063,1.063,0,0,0-.108-.39.757.757,0,0,0-.249-.241,3.12,3.12,0,0,0-.41-.2l-.981-.4a2.172,2.172,0,0,1-1.19-.961,3.3,3.3,0,0,1-.3-1.5,3.469,3.469,0,0,1,.148-1.022,2.311,2.311,0,0,1,.443-.834,2.035,2.035,0,0,1,.719-.558,2.4,2.4,0,0,1,1.042-.208,2.278,2.278,0,0,1,.934.188,2.4,2.4,0,0,1,.733.5,2.075,2.075,0,0,1,.619,1.479Z" transform="translate(-2265.946 -3046.496)" fill="#01172d"/>
        <path id="Path_76222" data-name="Path 76222" d="M2509.774,3232.53v7.422a2.165,2.165,0,0,1-.646,1.573,2.27,2.27,0,0,1-.713.484,2.134,2.134,0,0,1-.861.175,2.092,2.092,0,0,1-.854-.175,2.334,2.334,0,0,1-1.189-1.19,2.121,2.121,0,0,1-.175-.867v-7.422h1.372v7.287a1.029,1.029,0,0,0,.241.753.877.877,0,0,0,1.21,0,1.027,1.027,0,0,0,.243-.753v-7.287Z" transform="translate(-2362.184 -3047.826)" fill="#01172d"/>
        <path id="Path_76223" data-name="Path 76223" d="M2607.407,3242.1v-9.573h1.317l1.761,5.069h.027l1.748-5.069h1.331v9.573h-1.372v-5.821h-.026l-1.358,4.114h-.686l-1.344-4.114h-.027v5.821Z" transform="translate(-2458.422 -3047.826)" fill="#01172d"/>
        <path id="Path_76224" data-name="Path 76224" d="M1700.387,3242.1v-9.573h1.371v8.2h2.716v1.371Z" transform="translate(-1603.228 -3047.826)" fill="#01172d"/>
        <path id="Path_76225" data-name="Path 76225" d="M1787.867,3233.459a2.437,2.437,0,0,1,.2-1.022,2.149,2.149,0,0,1,.538-.739,2.261,2.261,0,0,1,.732-.43,2.441,2.441,0,0,1,2.4.43,2.235,2.235,0,0,1,.524.739,2.444,2.444,0,0,1,.2,1.022v5.055a2.422,2.422,0,0,1-.2,1.035,2.126,2.126,0,0,1-.524.713,2.3,2.3,0,0,1-.746.444,2.385,2.385,0,0,1-1.654,0,2.157,2.157,0,0,1-.732-.444,2.049,2.049,0,0,1-.538-.713,2.415,2.415,0,0,1-.2-1.035Zm1.372,5.055a.913.913,0,0,0,.275.733,1.023,1.023,0,0,0,1.3,0,.913.913,0,0,0,.275-.733v-5.055a.912.912,0,0,0-.275-.732,1.022,1.022,0,0,0-1.3,0,.912.912,0,0,0-.275.732Z" transform="translate(-1685.709 -3046.496)" fill="#01172d"/>
        <path id="Path_76226" data-name="Path 76226" d="M1892.719,3233.821v2.984h.779a1.377,1.377,0,0,0,.578-.1.782.782,0,0,0,.336-.289,1.31,1.31,0,0,0,.148-.464,5.051,5.051,0,0,0,0-1.277,1.279,1.279,0,0,0-.161-.477,1.091,1.091,0,0,0-.968-.377Zm-1.372,8.282v-9.573h2.2q2.42,0,2.42,2.81a3.546,3.546,0,0,1-.262,1.439,2.031,2.031,0,0,1-.921.954l1.479,4.37h-1.452l-1.277-4.087h-.82v4.087Z" transform="translate(-1783.277 -3047.826)" fill="#01172d"/>
        <path id="Path_76227" data-name="Path 76227" d="M1993.407,3242.1v-9.573h4.087v1.291h-2.716v2.81h2.366v1.29h-2.366v2.81h2.716v1.371Z" transform="translate(-1879.505 -3047.826)" fill="#01172d"/>
        <path id="Path_76228" data-name="Path 76228" d="M2082.3,3242.1v-9.573h1.317l1.761,5.069h.028l1.747-5.069h1.332v9.573h-1.371v-5.821h-.027l-1.359,4.114h-.686l-1.344-4.114h-.027v5.821Z" transform="translate(-1963.316 -3047.826)" fill="#01172d"/>
        <rect id="Rectangle_11121" data-name="Rectangle 11121" width="1.371" height="9.573" transform="translate(129.207 184.704)" fill="#01172d"/>
        <path id="Path_76229" data-name="Path 76229" d="M2310.377,3242.1v-9.573h2.057a3.05,3.05,0,0,1,1,.148,1.907,1.907,0,0,1,.78.524,2.049,2.049,0,0,1,.484.881,5.494,5.494,0,0,1,.135,1.365,6.76,6.76,0,0,1-.074,1.089,2.272,2.272,0,0,1-.316.834,2,2,0,0,1-.752.732,2.535,2.535,0,0,1-1.237.262h-.7v3.738Zm1.371-8.282v3.254h.659a1.4,1.4,0,0,0,.646-.121.765.765,0,0,0,.336-.336,1.231,1.231,0,0,0,.127-.5c.013-.2.021-.417.021-.659q0-.336-.014-.638a1.368,1.368,0,0,0-.121-.531.761.761,0,0,0-.322-.349,1.279,1.279,0,0,0-.619-.121Z" transform="translate(-2178.364 -3047.826)" fill="#01172d"/>
        <path id="Path_76230" data-name="Path 76230" d="M2407.973,3233.957H2406.6v-.31a1.463,1.463,0,0,0-.222-.813.819.819,0,0,0-.746-.343.864.864,0,0,0-.457.107.906.906,0,0,0-.283.269,1.137,1.137,0,0,0-.147.4,2.569,2.569,0,0,0-.041.464,4.464,4.464,0,0,0,.02.47.885.885,0,0,0,.1.336.734.734,0,0,0,.235.256,2.172,2.172,0,0,0,.423.216l1.049.417a2.594,2.594,0,0,1,.739.41,1.781,1.781,0,0,1,.444.545,2.543,2.543,0,0,1,.2.732,7.206,7.206,0,0,1,.054.935,4.946,4.946,0,0,1-.121,1.122,2.361,2.361,0,0,1-.391.881,1.929,1.929,0,0,1-.739.592,2.608,2.608,0,0,1-1.116.215,2.441,2.441,0,0,1-.927-.175,2.2,2.2,0,0,1-.74-.484,2.343,2.343,0,0,1-.49-.719,2.178,2.178,0,0,1-.182-.894v-.511h1.371v.43a1.117,1.117,0,0,0,.222.679.861.861,0,0,0,.745.3,1.209,1.209,0,0,0,.544-.1.732.732,0,0,0,.3-.289,1.072,1.072,0,0,0,.127-.45q.02-.262.02-.585a5.747,5.747,0,0,0-.027-.618,1.063,1.063,0,0,0-.108-.39.757.757,0,0,0-.249-.241,3.12,3.12,0,0,0-.41-.2l-.981-.4a2.172,2.172,0,0,1-1.19-.961,3.3,3.3,0,0,1-.3-1.5,3.469,3.469,0,0,1,.148-1.022,2.311,2.311,0,0,1,.443-.834,2.035,2.035,0,0,1,.719-.558,2.4,2.4,0,0,1,1.042-.208,2.278,2.278,0,0,1,.934.188,2.4,2.4,0,0,1,.733.5,2.075,2.075,0,0,1,.619,1.479Z" transform="translate(-2265.946 -3046.496)" fill="#01172d"/>
        <path id="Path_76231" data-name="Path 76231" d="M2509.774,3232.53v7.422a2.165,2.165,0,0,1-.646,1.573,2.27,2.27,0,0,1-.713.484,2.134,2.134,0,0,1-.861.175,2.092,2.092,0,0,1-.854-.175,2.334,2.334,0,0,1-1.189-1.19,2.121,2.121,0,0,1-.175-.867v-7.422h1.372v7.287a1.029,1.029,0,0,0,.241.753.877.877,0,0,0,1.21,0,1.027,1.027,0,0,0,.243-.753v-7.287Z" transform="translate(-2362.184 -3047.826)" fill="#01172d"/>
        <path id="Path_76232" data-name="Path 76232" d="M2607.407,3242.1v-9.573h1.317l1.761,5.069h.027l1.748-5.069h1.331v9.573h-1.372v-5.821h-.026l-1.358,4.114h-.686l-1.344-4.114h-.027v5.821Z" transform="translate(-2458.422 -3047.826)" fill="#01172d"/>
        <path id="Path_76233" data-name="Path 76233" d="M1700.387,3242.1v-9.573h1.371v8.2h2.716v1.371Z" transform="translate(-1603.228 -3047.826)" fill="#01172d"/>
        <path id="Path_76234" data-name="Path 76234" d="M1787.867,3233.459a2.437,2.437,0,0,1,.2-1.022,2.149,2.149,0,0,1,.538-.739,2.261,2.261,0,0,1,.732-.43,2.441,2.441,0,0,1,2.4.43,2.235,2.235,0,0,1,.524.739,2.444,2.444,0,0,1,.2,1.022v5.055a2.422,2.422,0,0,1-.2,1.035,2.126,2.126,0,0,1-.524.713,2.3,2.3,0,0,1-.746.444,2.385,2.385,0,0,1-1.654,0,2.157,2.157,0,0,1-.732-.444,2.049,2.049,0,0,1-.538-.713,2.415,2.415,0,0,1-.2-1.035Zm1.372,5.055a.913.913,0,0,0,.275.733,1.023,1.023,0,0,0,1.3,0,.913.913,0,0,0,.275-.733v-5.055a.912.912,0,0,0-.275-.732,1.022,1.022,0,0,0-1.3,0,.912.912,0,0,0-.275.732Z" transform="translate(-1685.709 -3046.496)" fill="#01172d"/>
        <path id="Path_76235" data-name="Path 76235" d="M1892.719,3233.821v2.984h.779a1.377,1.377,0,0,0,.578-.1.782.782,0,0,0,.336-.289,1.31,1.31,0,0,0,.148-.464,5.051,5.051,0,0,0,0-1.277,1.279,1.279,0,0,0-.161-.477,1.091,1.091,0,0,0-.968-.377Zm-1.372,8.282v-9.573h2.2q2.42,0,2.42,2.81a3.546,3.546,0,0,1-.262,1.439,2.031,2.031,0,0,1-.921.954l1.479,4.37h-1.452l-1.277-4.087h-.82v4.087Z" transform="translate(-1783.277 -3047.826)" fill="#01172d"/>
        <path id="Path_76236" data-name="Path 76236" d="M1993.407,3242.1v-9.573h4.087v1.291h-2.716v2.81h2.366v1.29h-2.366v2.81h2.716v1.371Z" transform="translate(-1879.505 -3047.826)" fill="#01172d"/>
        <path id="Path_76237" data-name="Path 76237" d="M2082.3,3242.1v-9.573h1.317l1.761,5.069h.028l1.747-5.069h1.332v9.573h-1.371v-5.821h-.027l-1.359,4.114h-.686l-1.344-4.114h-.027v5.821Z" transform="translate(-1963.316 -3047.826)" fill="#01172d"/>
        <rect id="Rectangle_11122" data-name="Rectangle 11122" width="1.371" height="9.573" transform="translate(129.207 184.704)" fill="#01172d"/>
        <path id="Path_76238" data-name="Path 76238" d="M2310.377,3242.1v-9.573h2.057a3.05,3.05,0,0,1,1,.148,1.907,1.907,0,0,1,.78.524,2.049,2.049,0,0,1,.484.881,5.494,5.494,0,0,1,.135,1.365,6.76,6.76,0,0,1-.074,1.089,2.272,2.272,0,0,1-.316.834,2,2,0,0,1-.752.732,2.535,2.535,0,0,1-1.237.262h-.7v3.738Zm1.371-8.282v3.254h.659a1.4,1.4,0,0,0,.646-.121.765.765,0,0,0,.336-.336,1.231,1.231,0,0,0,.127-.5c.013-.2.021-.417.021-.659q0-.336-.014-.638a1.368,1.368,0,0,0-.121-.531.761.761,0,0,0-.322-.349,1.279,1.279,0,0,0-.619-.121Z" transform="translate(-2178.364 -3047.826)" fill="#01172d"/>
        <path id="Path_76239" data-name="Path 76239" d="M2407.973,3233.957H2406.6v-.31a1.463,1.463,0,0,0-.222-.813.819.819,0,0,0-.746-.343.864.864,0,0,0-.457.107.906.906,0,0,0-.283.269,1.137,1.137,0,0,0-.147.4,2.569,2.569,0,0,0-.041.464,4.464,4.464,0,0,0,.02.47.885.885,0,0,0,.1.336.734.734,0,0,0,.235.256,2.172,2.172,0,0,0,.423.216l1.049.417a2.594,2.594,0,0,1,.739.41,1.781,1.781,0,0,1,.444.545,2.543,2.543,0,0,1,.2.732,7.206,7.206,0,0,1,.054.935,4.946,4.946,0,0,1-.121,1.122,2.361,2.361,0,0,1-.391.881,1.929,1.929,0,0,1-.739.592,2.608,2.608,0,0,1-1.116.215,2.441,2.441,0,0,1-.927-.175,2.2,2.2,0,0,1-.74-.484,2.343,2.343,0,0,1-.49-.719,2.178,2.178,0,0,1-.182-.894v-.511h1.371v.43a1.117,1.117,0,0,0,.222.679.861.861,0,0,0,.745.3,1.209,1.209,0,0,0,.544-.1.732.732,0,0,0,.3-.289,1.072,1.072,0,0,0,.127-.45q.02-.262.02-.585a5.747,5.747,0,0,0-.027-.618,1.063,1.063,0,0,0-.108-.39.757.757,0,0,0-.249-.241,3.12,3.12,0,0,0-.41-.2l-.981-.4a2.172,2.172,0,0,1-1.19-.961,3.3,3.3,0,0,1-.3-1.5,3.469,3.469,0,0,1,.148-1.022,2.311,2.311,0,0,1,.443-.834,2.035,2.035,0,0,1,.719-.558,2.4,2.4,0,0,1,1.042-.208,2.278,2.278,0,0,1,.934.188,2.4,2.4,0,0,1,.733.5,2.075,2.075,0,0,1,.619,1.479Z" transform="translate(-2265.946 -3046.496)" fill="#01172d"/>
        <path id="Path_76240" data-name="Path 76240" d="M2509.774,3232.53v7.422a2.165,2.165,0,0,1-.646,1.573,2.27,2.27,0,0,1-.713.484,2.134,2.134,0,0,1-.861.175,2.092,2.092,0,0,1-.854-.175,2.334,2.334,0,0,1-1.189-1.19,2.121,2.121,0,0,1-.175-.867v-7.422h1.372v7.287a1.029,1.029,0,0,0,.241.753.877.877,0,0,0,1.21,0,1.027,1.027,0,0,0,.243-.753v-7.287Z" transform="translate(-2362.184 -3047.826)" fill="#01172d"/>
        <path id="Path_76241" data-name="Path 76241" d="M2607.407,3242.1v-9.573h1.317l1.761,5.069h.027l1.748-5.069h1.331v9.573h-1.372v-5.821h-.026l-1.358,4.114h-.686l-1.344-4.114h-.027v5.821Z" transform="translate(-2458.422 -3047.826)" fill="#01172d"/>
        <path id="Path_76242" data-name="Path 76242" d="M623.834,453.16c2.1-4.073-16.721-36.522-17.023-44.719-.907-24.6,28.754-24.8,31.346-44.886,2.323-18-27.878-39.738-9.2-56.768,15.992-14.579,33.8-8.508,52.47-13.532,11.134-3,11.987-13.284,20.784-19.143,19.064-12.7,60.681.387,71.55,18.813,10.425,17.672-12.3,33.239-6.473,50.167,4.684,13.612,19.593,20.323,20.443,35.975.677,12.457-11.927,20.945-10.221,33.334,2.308,16.772,32.423,21.03,8.858,40.6" transform="translate(-572.119 -253.688)" fill="#e0f0ff"/>
        <path id="Path_76243" data-name="Path 76243" d="M908.994,1609.08a.377.377,0,0,1,.376.377v3.017a.377.377,0,1,1-.753,0v-3.017a.377.377,0,0,1,.377-.377" transform="translate(-856.699 -1517.138)" fill="#e0f0ff"/>
        <path id="Path_76244" data-name="Path 76244" d="M911.593,1778.74a.376.376,0,0,0,.376-.376v-3.017a.376.376,0,1,0-.753,0v3.017a.377.377,0,0,0,.377.376" transform="translate(-859.151 -1673.55)" fill="#e0f0ff"/>
        <path id="Path_76245" data-name="Path 76245" d="M951.735,1640.018a.376.376,0,0,1,.021.532l-2.048,2.215a.377.377,0,0,1-.553-.511l2.048-2.215a.376.376,0,0,1,.532-.021" transform="translate(-894.826 -1546.214)" fill="#e0f0ff"/>
        <path id="Path_76246" data-name="Path 76246" d="M835.055,1637.939a.376.376,0,0,0-.021.532l2.048,2.216a.377.377,0,0,0,.553-.511l-2.049-2.215a.376.376,0,0,0-.532-.021" transform="translate(-787.227 -1544.254)" fill="#e0f0ff"/>
        <path id="Path_76247" data-name="Path 76247" d="M954.331,1761.036a.376.376,0,0,0,.021-.532l-2.048-2.215a.376.376,0,1,0-.553.511l2.048,2.215a.377.377,0,0,0,.532.021" transform="translate(-897.274 -1657.708)" fill="#e0f0ff"/>
        <path id="Path_76248" data-name="Path 76248" d="M832.455,1758.965a.377.377,0,0,1-.021-.532l2.048-2.215a.376.376,0,1,1,.553.511l-2.048,2.215a.377.377,0,0,1-.533.021" transform="translate(-784.776 -1655.755)" fill="#e0f0ff"/>
        <path id="Path_76249" data-name="Path 76249" d="M971.126,1718.787a.376.376,0,0,1-.377.376h-3.016a.376.376,0,1,1,0-.753l3.017,0a.377.377,0,0,1,.377.377" transform="translate(-912.083 -1620.222)" fill="#e0f0ff"/>
        <path id="Path_76250" data-name="Path 76250" d="M799.687,1716.716a.377.377,0,0,0,.376.377h3.017a.377.377,0,0,0,0-.753h-3.017a.376.376,0,0,0-.377.376" transform="translate(-753.993 -1618.27)" fill="#e0f0ff"/>
        <path id="Path_76251" data-name="Path 76251" d="M3337.973,153.131a.377.377,0,0,1,.377.376v3.017a.376.376,0,1,1-.753,0v-3.017a.376.376,0,0,1,.376-.376" transform="translate(-3146.889 -144.381)" fill="#e0f0ff"/>
        <path id="Path_76252" data-name="Path 76252" d="M3340.573,322.79a.377.377,0,0,0,.377-.376V319.4a.376.376,0,0,0-.753,0v3.017a.377.377,0,0,0,.376.376" transform="translate(-3149.34 -300.792)" fill="#e0f0ff"/>
        <path id="Path_76253" data-name="Path 76253" d="M3380.715,184.064a.377.377,0,0,1,.021.532l-2.049,2.215a.376.376,0,1,1-.553-.511l2.048-2.215a.377.377,0,0,1,.532-.021" transform="translate(-3185.016 -173.453)" fill="#e0f0ff"/>
        <path id="Path_76254" data-name="Path 76254" d="M3264.03,181.99a.376.376,0,0,0-.021.532l2.049,2.215a.376.376,0,1,0,.552-.511l-2.048-2.215a.376.376,0,0,0-.532-.021" transform="translate(-3077.411 -171.497)" fill="#e0f0ff"/>
        <path id="Path_76255" data-name="Path 76255" d="M3383.309,305.088a.376.376,0,0,0,.021-.532l-2.048-2.215a.377.377,0,0,0-.553.511l2.048,2.215a.376.376,0,0,0,.532.021" transform="translate(-3187.463 -284.952)" fill="#e0f0ff"/>
        <path id="Path_76256" data-name="Path 76256" d="M3261.435,303.014a.377.377,0,0,1-.021-.532l2.048-2.215a.377.377,0,0,1,.553.511l-2.048,2.215a.377.377,0,0,1-.532.021" transform="translate(-3074.965 -282.996)" fill="#e0f0ff"/>
        <path id="Path_76257" data-name="Path 76257" d="M3400.1,262.837a.377.377,0,0,1-.377.377H3396.7a.376.376,0,1,1,0-.753h3.017a.376.376,0,0,1,.377.376" transform="translate(-3202.263 -247.464)" fill="#e0f0ff"/>
        <path id="Path_76258" data-name="Path 76258" d="M3228.667,260.763a.376.376,0,0,0,.376.377h3.017a.376.376,0,1,0,0-.753l-3.016,0a.376.376,0,0,0-.377.376" transform="translate(-3044.183 -245.509)" fill="#e0f0ff"/>
        <path id="Path_76259" data-name="Path 76259" d="M3739.013,2606.94a.376.376,0,0,1,.376.376v3.017a.376.376,0,1,1-.753,0v-3.017a.376.376,0,0,1,.376-.376" transform="translate(-3525.014 -2457.982)" fill="#e0f0ff"/>
        <path id="Path_76260" data-name="Path 76260" d="M3741.614,2776.6a.376.376,0,0,0,.376-.376v-3.017a.376.376,0,1,0-.752,0v3.017a.376.376,0,0,0,.376.376" transform="translate(-3527.466 -2614.393)" fill="#e0f0ff"/>
        <path id="Path_76261" data-name="Path 76261" d="M3781.755,2637.878a.376.376,0,0,1,.021.532l-2.048,2.215a.376.376,0,0,1-.553-.511l2.048-2.216a.377.377,0,0,1,.532-.02" transform="translate(-3563.142 -2487.057)" fill="#e0f0ff"/>
        <path id="Path_76262" data-name="Path 76262" d="M3665.075,2635.8a.378.378,0,0,0-.021.533l2.048,2.215a.377.377,0,0,0,.553-.511l-2.048-2.215a.377.377,0,0,0-.532-.021" transform="translate(-3455.542 -2485.1)" fill="#e0f0ff"/>
        <path id="Path_76263" data-name="Path 76263" d="M3784.354,2758.9a.377.377,0,0,0,.021-.532l-2.048-2.215a.377.377,0,1,0-.553.511l2.048,2.215a.377.377,0,0,0,.532.021" transform="translate(-3565.592 -2598.555)" fill="#e0f0ff"/>
        <path id="Path_76264" data-name="Path 76264" d="M3662.477,2756.825a.376.376,0,0,1-.021-.532l2.048-2.215a.376.376,0,0,1,.553.511l-2.048,2.216a.377.377,0,0,1-.532.021" transform="translate(-3453.091 -2596.599)" fill="#e0f0ff"/>
        <path id="Path_76265" data-name="Path 76265" d="M3801.146,2716.646a.377.377,0,0,1-.376.377l-3.017,0a.377.377,0,0,1,0-.753l3.017,0a.376.376,0,0,1,.376.376" transform="translate(-3580.398 -2561.065)" fill="#e0f0ff"/>
        <path id="Path_76266" data-name="Path 76266" d="M3629.707,2714.576a.377.377,0,0,0,.376.377h3.017a.376.376,0,1,0,0-.752h-3.017a.376.376,0,0,0-.376.376" transform="translate(-3422.308 -2559.113)" fill="#e0f0ff"/>
        <path id="Path_76267" data-name="Path 76267" d="M1752.513,331.633a.376.376,0,0,1,.376.376v3.017a.376.376,0,1,1-.752,0v-3.017a.376.376,0,0,1,.376-.376" transform="translate(-1652.021 -312.684)" fill="#e0f0ff"/>
        <path id="Path_76268" data-name="Path 76268" d="M1755.1,501.292a.377.377,0,0,0,.377-.376V497.9a.377.377,0,0,0-.753,0v3.017a.376.376,0,0,0,.376.376" transform="translate(-1654.463 -469.094)" fill="#e0f0ff"/>
        <path id="Path_76269" data-name="Path 76269" d="M1795.25,362.566a.377.377,0,0,1,.021.532l-2.048,2.215a.377.377,0,0,1-.553-.511l2.048-2.215a.377.377,0,0,1,.532-.021" transform="translate(-1690.143 -341.755)" fill="#e0f0ff"/>
        <path id="Path_76270" data-name="Path 76270" d="M1678.565,360.492a.376.376,0,0,0-.021.532l2.048,2.215a.377.377,0,0,0,.553-.511l-2.049-2.215a.376.376,0,0,0-.532-.021" transform="translate(-1582.54 -339.8)" fill="#e0f0ff"/>
        <path id="Path_76271" data-name="Path 76271" d="M1797.844,483.59a.376.376,0,0,0,.021-.532l-2.049-2.215a.376.376,0,1,0-.552.511l2.048,2.215a.376.376,0,0,0,.532.021" transform="translate(-1692.59 -453.254)" fill="#e0f0ff"/>
        <path id="Path_76272" data-name="Path 76272" d="M1675.97,481.516a.377.377,0,0,1-.021-.532l2.048-2.215a.376.376,0,1,1,.552.511L1676.5,481.5a.376.376,0,0,1-.532.021" transform="translate(-1580.092 -451.299)" fill="#e0f0ff"/>
        <path id="Path_76273" data-name="Path 76273" d="M1814.636,441.339a.376.376,0,0,1-.376.377h-3.017a.376.376,0,0,1,0-.753h3.017a.376.376,0,0,1,.377.376" transform="translate(-1707.395 -415.767)" fill="#e0f0ff"/>
        <path id="Path_76274" data-name="Path 76274" d="M1643.2,439.265a.377.377,0,0,0,.376.377h3.016a.376.376,0,1,0,0-.753h-3.017a.376.376,0,0,0-.376.376" transform="translate(-1549.306 -413.811)" fill="#e0f0ff"/>
        <path id="Path_76275" data-name="Path 76275" d="M507.967,1103.623a1.49,1.49,0,0,0-2.107-.009l-7.151,7.09a1.49,1.49,0,0,0-.009,2.107l7.09,7.151a1.491,1.491,0,0,0,2.108.01l7.151-7.091a1.49,1.49,0,0,0,.009-2.108Zm-.159,1.2,6.052,6.1a1.272,1.272,0,0,1-.007,1.8l-6.1,6.052a1.272,1.272,0,0,1-1.8-.007l-6.052-6.1a1.272,1.272,0,0,1,.008-1.8l6.1-6.052a1.272,1.272,0,0,1,1.8.007" transform="translate(-469.797 -1040.148)" fill="#e0f0ff"/>
        <path id="Path_76276" data-name="Path 76276" d="M3782.551,1994.372a1.308,1.308,0,0,0-1.85-.008l-6.279,6.226a1.308,1.308,0,0,0-.008,1.85l6.226,6.279a1.309,1.309,0,0,0,1.851.009l6.278-6.226a1.308,1.308,0,0,0,.007-1.851Zm-.14,1.051,5.314,5.359a1.117,1.117,0,0,1-.006,1.58l-5.359,5.313a1.117,1.117,0,0,1-1.58-.007l-5.313-5.359a1.117,1.117,0,0,1,.006-1.58l5.359-5.313a1.117,1.117,0,0,1,1.58.007" transform="translate(-3558.389 -1880.05)" fill="#e0f0ff"/>
        <path id="Path_76277" data-name="Path 76277" d="M3522.689,415.655a1.491,1.491,0,0,0-2.063.43l-5.516,8.425a1.489,1.489,0,0,0,.43,2.063l8.425,5.517a1.491,1.491,0,0,0,2.064-.43l5.517-8.425a1.491,1.491,0,0,0-.432-2.064Zm.094,1.2,7.191,4.708a1.273,1.273,0,0,1,.368,1.761l-4.709,7.191a1.272,1.272,0,0,1-1.761.367l-7.191-4.708a1.272,1.272,0,0,1-.367-1.761l4.708-7.191a1.273,1.273,0,0,1,1.761-.367" transform="translate(-3314.028 -391.675)" fill="#e0f0ff"/>
        <path id="Path_76278" data-name="Path 76278" d="M1935,84.015a1.49,1.49,0,0,0-2.107-.009l-7.151,7.091a1.49,1.49,0,0,0-.009,2.107l7.091,7.151a1.49,1.49,0,0,0,2.108.01l7.152-7.091a1.491,1.491,0,0,0,.008-2.108Zm-.159,1.2,6.052,6.1a1.272,1.272,0,0,1-.007,1.8l-6.1,6.052a1.273,1.273,0,0,1-1.8-.008l-6.052-6.1a1.272,1.272,0,0,1,.008-1.8l6.1-6.052a1.272,1.272,0,0,1,1.8.008" transform="translate(-1815.288 -78.799)" fill="#e0f0ff"/>
        <path id="Path_76279" data-name="Path 76279" d="M720.893,2042.74a4.775,4.775,0,1,0,4.775,4.775,4.775,4.775,0,0,0-4.775-4.775m0,2.2a2.573,2.573,0,1,1-2.573,2.573,2.573,2.573,0,0,1,2.573-2.573" transform="translate(-675.199 -1926.019)" fill="#e0f0ff"/>
        <path id="Path_76280" data-name="Path 76280" d="M3751.3,1641.44a4.775,4.775,0,1,0,4.774,4.775,4.776,4.776,0,0,0-4.774-4.775m0,2.2a2.573,2.573,0,1,1-2.573,2.573,2.573,2.573,0,0,1,2.573-2.573" transform="translate(-3532.453 -1547.649)" fill="#e0f0ff"/>
        <path id="Path_76281" data-name="Path 76281" d="M3667.733,936.04a4.775,4.775,0,1,0,4.774,4.775,4.776,4.776,0,0,0-4.774-4.775m0,2.2a2.573,2.573,0,1,1-2.573,2.573,2.574,2.574,0,0,1,2.573-2.573" transform="translate(-3453.658 -882.556)" fill="#e0f0ff"/>
        <path id="Path_76282" data-name="Path 76282" d="M2354.643,0a4.775,4.775,0,1,0,4.774,4.774A4.775,4.775,0,0,0,2354.643,0m0,2.2a2.573,2.573,0,1,1-2.573,2.573,2.573,2.573,0,0,1,2.573-2.573" transform="translate(-2215.597 -0.004)" fill="#e0f0ff"/>
        <path id="Path_76283" data-name="Path 76283" d="M0,3442.611c0-1.619,61.661-2.931,137.723-2.931s137.723,1.313,137.723,2.931-61.661,2.931-137.723,2.931S0,3444.23,0,3442.611" transform="translate(0 -3243.139)" fill="#d2e1f0"/>
        <path id="Path_76284" data-name="Path 76284" d="M3612.938,3479.74c-.1.251-.175.453-.245.642h-.117c.123-.213.241-.428.362-.642" transform="translate(-3406.156 -3280.91)" fill="#a0662c"/>
        <path id="Path_76285" data-name="Path 76285" d="M3704.381,2721.108c-1.167-4.269-5.576-6.6-5.576-6.6s-2.518,4.592-1.351,8.862,5.637,6.614,5.637,6.614,2.457-4.608,1.29-8.877" transform="translate(-3485.894 -2559.405)" fill="#89ce3d"/>
        <path id="Path_76286" data-name="Path 76286" d="M3987.654,2770.418c3.951,1.094,6.267,5.812,6.267,5.812s-4.091,2.945-8.042,1.85-6.283-5.877-6.283-5.877,4.107-2.879,8.058-1.785" transform="translate(-3752.206 -2611.885)" fill="#89ce3d"/>
        <path id="Path_76287" data-name="Path 76287" d="M1167.487,3479.74c.1.251.175.453.245.642h.117c-.123-.213-.241-.428-.362-.642" transform="translate(-1100.778 -3280.91)" fill="#a0662c"/>
        <path id="Path_76288" data-name="Path 76288" d="M957.439,2721.108c1.167-4.269,5.576-6.6,5.576-6.6s2.518,4.592,1.351,8.862-5.637,6.614-5.637,6.614-2.456-4.608-1.29-8.877" transform="translate(-902.435 -2559.405)" fill="#89ce3d"/>
        <path id="Path_76289" data-name="Path 76289" d="M3949.191,2985.107a1.013,1.013,0,0,0,1.433.049l.022-.021a1.013,1.013,0,0,0,.048-1.433l-12.434-13.3a1.015,1.015,0,0,0-1.433-.048l-.022.021a1.014,1.014,0,0,0-.048,1.433Z" transform="translate(-3711.556 -2800.372)" fill="#7d9dc7"/>
        <path id="Path_76290" data-name="Path 76290" d="M3378.312,2385.372a24.416,24.416,0,1,1-9.1,33.307,24.415,24.415,0,0,1,9.1-33.307m1.334,2.337a21.724,21.724,0,1,0,29.636,8.1,21.724,21.724,0,0,0-29.636-8.1" transform="translate(-3173.664 -2246.043)" fill="#7d9dc7"/>
        <path id="Path_76291" data-name="Path 76291" d="M3424.054,2432.122a21.725,21.725,0,1,1-8.1,29.636,21.725,21.725,0,0,1,8.1-29.636" transform="translate(-3218.073 -2290.455)" fill="#d5eaff"/>
        <path id="Path_76292" data-name="Path 76292" d="M4162.224,3214.4a1.668,1.668,0,0,0,2.358.079l.043-.041a1.669,1.669,0,0,0,.08-2.359l-11.539-12.343a1.67,1.67,0,0,0-2.359-.079l-.042.04a1.669,1.669,0,0,0-.08,2.359Z" transform="translate(-3913.093 -3016.408)" fill="#555656"/>
        <path id="Path_76293" data-name="Path 76293" d="M3660.667,2474.565a.568.568,0,0,1,.2-.11c.027-.009.077-.025.147-.046q.171-.051.4-.111c.43-.112.923-.223,1.471-.324a24.867,24.867,0,0,1,5.024-.41.569.569,0,1,1-.024,1.138,23.675,23.675,0,0,0-4.792.391c-.52.1-.986.2-1.39.308-.141.036-.263.071-.367.1l-.116.035a.57.57,0,0,1-.55-.972" transform="translate(-3451.314 -2332.221)" fill="#f2f8ff"/>
        <path id="Path_76294" data-name="Path 76294" d="M3816.035,2476.513a.566.566,0,0,1,.33-.055,21.249,21.249,0,0,1,6.376,1.832,23.026,23.026,0,0,1,7.255,5.291,19.018,19.018,0,0,1,1.8,2.3,13.217,13.217,0,0,1,.825,1.411c.029.059.054.111.075.156.013.029.021.05.027.063a.569.569,0,1,1-1.046.45l-.017-.035c-.017-.035-.036-.079-.06-.129a12.344,12.344,0,0,0-.754-1.287,17.887,17.887,0,0,0-1.694-2.164,21.89,21.89,0,0,0-6.9-5.027,20.132,20.132,0,0,0-6.037-1.733.569.569,0,0,1-.182-1.073" transform="translate(-3597.694 -2334.95)" fill="#f2f8ff"/>
        <path id="Path_76295" data-name="Path 76295" d="M1506.551,3032.94l-8.63,22.84a2.3,2.3,0,0,0,2.3,3.332h33.715a2.3,2.3,0,0,0,2.3-3.332l-8.63-22.84Z" transform="translate(-1412.126 -2859.64)" fill="#76a0d3"/>
        <path id="Path_76296" data-name="Path 76296" d="M1603.386,3098.86l-1.469,3.888h26.844l-1.469-3.888Z" transform="translate(-1510.385 -2921.794)" fill="#2e4765"/>
        <path id="Path_76297" data-name="Path 76297" d="M751.856,1671.23H868.039a4.14,4.14,0,0,1,4.139,4.14v73.343a4.139,4.139,0,0,1-4.139,4.139H751.856a4.139,4.139,0,0,1-4.139-4.139V1675.37a4.14,4.14,0,0,1,4.139-4.14" transform="translate(-704.993 -1575.737)" fill="#76a0d3"/>
        <path id="Path_76298" data-name="Path 76298" d="M751.856,1626.73H868.039a3.941,3.941,0,0,1,4.139,3.707v65.689a3.941,3.941,0,0,1-4.139,3.707H751.856a3.941,3.941,0,0,1-4.139-3.707v-65.689a3.941,3.941,0,0,1,4.139-3.707" transform="translate(-704.993 -1533.78)" fill="#2e4765"/>
        <path id="Path_76299" data-name="Path 76299" d="M799.207,1671.24a3.966,3.966,0,0,0-3.96,3.971v59.1a3.966,3.966,0,0,0,3.96,3.971h111.11a3.966,3.966,0,0,0,3.96-3.971v-59.1a3.966,3.966,0,0,0-3.96-3.971Z" transform="translate(-749.807 -1575.747)" fill="#e2f1ff"/>
        <path id="Path_76300" data-name="Path 76300" d="M799.207,1671.23c-.137,0-.273.008-.406.021a3.936,3.936,0,0,0-1.808.657,3.992,3.992,0,0,0-.842.766,0,0,0,0,1,0,0,3.959,3.959,0,0,0-.725,1.343s0,0,0,0a3.951,3.951,0,0,0-.157.774s0,0,0,0a3.942,3.942,0,0,0-.022.4v6.358h119.03V1675.2a3.966,3.966,0,0,0-3.96-3.971Z" transform="translate(-749.807 -1575.737)" fill="#81a6d2"/>
        <path id="Path_76301" data-name="Path 76301" d="M872.517,1728.977a1.978,1.978,0,1,1,1.978,1.978,1.978,1.978,0,0,1-1.978-1.978" transform="translate(-822.662 -1628.321)" fill="#e92020"/>
        <path id="Path_76302" data-name="Path 76302" d="M971.207,1728.977a1.978,1.978,0,1,1,1.978,1.978,1.978,1.978,0,0,1-1.978-1.978" transform="translate(-915.713 -1628.321)" fill="#fddf19"/>
        <path id="Path_76303" data-name="Path 76303" d="M1069.907,1728.977a1.978,1.978,0,1,1,1.978,1.978,1.977,1.977,0,0,1-1.978-1.978" transform="translate(-1008.773 -1628.321)" fill="#4fc83a"/>
        <path id="Path_76304" data-name="Path 76304" d="M1770.867,2934.448a3.768,3.768,0,1,1,3.768,3.769,3.768,3.768,0,0,1-3.768-3.769" transform="translate(-1669.681 -2763.223)" fill="#3f5c69"/>
        <path id="Path_76305" data-name="Path 76305" d="M1258.147,3397.567a2.736,2.736,0,0,1,2.736-2.737h60.658a2.736,2.736,0,0,1,2.736,2.737v2.757h-66.13Z" transform="translate(-1186.257 -3200.852)" fill="#6289b8"/>
        <path id="Path_76306" data-name="Path 76306" d="M2410.316,998.417,2410.3,863.8a7.975,7.975,0,0,1,7.974-7.976l53.943-.007a7.975,7.975,0,0,1,7.976,7.974l.019,134.614a7.975,7.975,0,0,1-7.974,7.976l-53.943.008a7.975,7.975,0,0,1-7.976-7.974" transform="translate(-2272.574 -806.919)" fill="#124474"/>
        <path id="Path_76307" data-name="Path 76307" d="M2440.637,1052.691l-.03-129.733a6.8,6.8,0,0,1,6.794-6.8l53.083,0a6.8,6.8,0,0,1,6.8,6.795l.03,129.732a6.794,6.794,0,0,1-6.794,6.8l-53.082,0a6.8,6.8,0,0,1-6.8-6.795" transform="translate(-2301.153 -863.812)" fill="#f3f9ff"/>
        <path id="Path_76308" data-name="Path 76308" d="M2981.457,976.86a2.32,2.32,0,1,1,2.32,2.32,2.32,2.32,0,0,1-2.32-2.32" transform="translate(-2811.099 -918.856)" fill="#124474"/>
        <path id="Path_76309" data-name="Path 76309" d="M2834.317,1433.019a1.059,1.059,0,0,1,1.059-1.059h16.816a1.058,1.058,0,0,1,1.059,1.059v.163a1.059,1.059,0,0,1-1.059,1.059h-16.816a1.059,1.059,0,0,1-1.059-1.059Z" transform="translate(-2672.366 -1350.139)" fill="#acc5dd"/>
        <path id="Path_76310" data-name="Path 76310" d="M2834.317,1864.012a1.052,1.052,0,0,1,1.052-1.052h16.83a1.052,1.052,0,0,1,1.052,1.052v.177a1.052,1.052,0,0,1-1.052,1.052h-16.83a1.052,1.052,0,0,1-1.052-1.052Z" transform="translate(-2672.366 -1756.512)" fill="#acc5dd"/>
        <path id="Path_76311" data-name="Path 76311" d="M3186.9,1433.089a1.129,1.129,0,0,1,1.129-1.13h8.347a1.13,1.13,0,0,1,1.13,1.13v.022a1.13,1.13,0,0,1-1.13,1.13h-8.347a1.13,1.13,0,0,1-1.129-1.13Z" transform="translate(-3004.8 -1350.139)" fill="#acc5dd"/>
        <path id="Path_76312" data-name="Path 76312" d="M3186.9,1863.871a.91.91,0,0,1,.91-.911h8.785a.911.911,0,0,1,.911.911v.46a.911.911,0,0,1-.911.91h-8.785a.91.91,0,0,1-.91-.91Z" transform="translate(-3004.8 -1756.512)" fill="#acc5dd"/>
        <path id="Path_76313" data-name="Path 76313" d="M3284.457,1549.891a1.141,1.141,0,0,1,1.141-1.141h8.325a1.141,1.141,0,1,1,0,2.281H3285.6a1.141,1.141,0,0,1-1.141-1.14" transform="translate(-3096.786 -1460.256)" fill="#acc5dd"/>
        <path id="Path_76314" data-name="Path 76314" d="M3345.827,1761.072a1.052,1.052,0,0,1,1.052-1.052h4.995a1.052,1.052,0,0,1,1.053,1.052v.177a1.053,1.053,0,0,1-1.053,1.052h-4.995a1.052,1.052,0,0,1-1.052-1.052Z" transform="translate(-3154.649 -1659.454)" fill="#acc5dd"/>
        <path id="Path_76315" data-name="Path 76315" d="M3392.727,1433.089a1.129,1.129,0,0,1,1.129-1.13h2.8a1.129,1.129,0,0,1,1.129,1.13v.022a1.129,1.129,0,0,1-1.129,1.13h-2.8a1.129,1.129,0,0,1-1.129-1.13Z" transform="translate(-3198.869 -1350.139)" fill="#acc5dd"/>
        <path id="Path_76316" data-name="Path 76316" d="M3392.727,1864.09a1.129,1.129,0,0,1,1.129-1.13h2.8a1.129,1.129,0,0,1,1.129,1.13v.022a1.129,1.129,0,0,1-1.129,1.129h-2.8a1.13,1.13,0,0,1-1.129-1.129Z" transform="translate(-3198.869 -1756.512)" fill="#acc5dd"/>
        <path id="Path_76317" data-name="Path 76317" d="M3175.637,1549.891a1.141,1.141,0,0,1,1.14-1.141h2.782a1.141,1.141,0,0,1,0,2.281h-2.782a1.141,1.141,0,0,1-1.14-1.14" transform="translate(-2994.183 -1460.256)" fill="#acc5dd"/>
        <path id="Path_76318" data-name="Path 76318" d="M3219.937,1761.067a1.048,1.048,0,0,1,1.048-1.047h3.723a1.048,1.048,0,0,1,1.048,1.047v.186a1.048,1.048,0,0,1-1.048,1.048h-3.723a1.048,1.048,0,0,1-1.048-1.048Z" transform="translate(-3035.952 -1659.454)" fill="#acc5dd"/>
        <path id="Path_76319" data-name="Path 76319" d="M3061.887,1549.891a1.141,1.141,0,0,1,1.141-1.141h2.782a1.141,1.141,0,1,1,0,2.281h-2.782a1.141,1.141,0,0,1-1.141-1.14" transform="translate(-2886.933 -1460.256)" fill="#acc5dd"/>
        <path id="Path_76320" data-name="Path 76320" d="M3122.117,1761.154a1.134,1.134,0,0,1,1.134-1.134h2.268a1.134,1.134,0,0,1,1.134,1.134v.013a1.134,1.134,0,0,1-1.134,1.134h-2.268a1.134,1.134,0,0,1-1.134-1.134Z" transform="translate(-2943.722 -1659.454)" fill="#acc5dd"/>
        <path id="Path_76321" data-name="Path 76321" d="M2834.317,1549.891a1.141,1.141,0,0,1,1.14-1.141h9.528a1.141,1.141,0,0,1,0,2.281h-9.528a1.141,1.141,0,0,1-1.14-1.14" transform="translate(-2672.366 -1460.256)" fill="#acc5dd"/>
        <path id="Path_76322" data-name="Path 76322" d="M2834.317,1761.123a1.1,1.1,0,0,1,1.1-1.1h13.329a1.1,1.1,0,0,1,1.1,1.1v.075a1.1,1.1,0,0,1-1.1,1.1H2835.42a1.1,1.1,0,0,1-1.1-1.1Z" transform="translate(-2672.366 -1659.454)" fill="#acc5dd"/>
        <path id="Path_76323" data-name="Path 76323" d="M2834.317,2088.989a1.059,1.059,0,0,1,1.059-1.059h16.816a1.059,1.059,0,0,1,1.059,1.059v.163a1.058,1.058,0,0,1-1.059,1.059h-16.816a1.059,1.059,0,0,1-1.059-1.059Z" transform="translate(-2672.366 -1968.627)" fill="#acc5dd"/>
        <path id="Path_76324" data-name="Path 76324" d="M2834.317,2519.992a1.052,1.052,0,0,1,1.052-1.052h16.83a1.052,1.052,0,0,1,1.052,1.052v.176a1.051,1.051,0,0,1-1.052,1.052h-16.83a1.052,1.052,0,0,1-1.052-1.052Z" transform="translate(-2672.366 -2375.01)" fill="#acc5dd"/>
        <path id="Path_76325" data-name="Path 76325" d="M3186.9,2089.06a1.13,1.13,0,0,1,1.129-1.13h8.347a1.13,1.13,0,0,1,1.13,1.13v.022a1.129,1.129,0,0,1-1.13,1.129h-8.347a1.129,1.129,0,0,1-1.129-1.129Z" transform="translate(-3004.8 -1968.627)" fill="#acc5dd"/>
        <rect id="Rectangle_11123" data-name="Rectangle 11123" width="10.606" height="2.28" rx="1.14" transform="translate(182.097 143.93)" fill="#acc5dd"/>
        <path id="Path_76326" data-name="Path 76326" d="M3284.457,2205.86a1.141,1.141,0,0,1,1.141-1.14h8.325a1.141,1.141,0,1,1,0,2.281H3285.6a1.141,1.141,0,0,1-1.141-1.141" transform="translate(-3096.786 -2078.744)" fill="#acc5dd"/>
        <path id="Path_76327" data-name="Path 76327" d="M3345.827,2417.042a1.052,1.052,0,0,1,1.052-1.052h4.995a1.052,1.052,0,0,1,1.053,1.052v.177a1.053,1.053,0,0,1-1.053,1.053h-4.995a1.052,1.052,0,0,1-1.052-1.053Z" transform="translate(-3154.649 -2277.942)" fill="#acc5dd"/>
        <path id="Path_76328" data-name="Path 76328" d="M3392.727,2089.06a1.13,1.13,0,0,1,1.129-1.13h2.8a1.129,1.129,0,0,1,1.129,1.13v.022a1.129,1.129,0,0,1-1.129,1.129h-2.8a1.129,1.129,0,0,1-1.129-1.129Z" transform="translate(-3198.869 -1968.627)" fill="#acc5dd"/>
        <rect id="Rectangle_11124" data-name="Rectangle 11124" width="5.063" height="2.28" rx="1.14" transform="translate(193.858 143.93)" fill="#acc5dd"/>
        <path id="Path_76329" data-name="Path 76329" d="M3175.637,2205.86a1.141,1.141,0,0,1,1.14-1.14h2.782a1.141,1.141,0,0,1,0,2.281h-2.782a1.141,1.141,0,0,1-1.14-1.141" transform="translate(-2994.183 -2078.744)" fill="#acc5dd"/>
        <path id="Path_76330" data-name="Path 76330" d="M3219.937,2417.037a1.048,1.048,0,0,1,1.048-1.047h3.723a1.048,1.048,0,0,1,1.048,1.047v.186a1.048,1.048,0,0,1-1.048,1.048h-3.723a1.048,1.048,0,0,1-1.048-1.048Z" transform="translate(-3035.952 -2277.942)" fill="#acc5dd"/>
        <path id="Path_76331" data-name="Path 76331" d="M3061.887,2205.86a1.141,1.141,0,0,1,1.141-1.14h2.782a1.141,1.141,0,1,1,0,2.281h-2.782a1.141,1.141,0,0,1-1.141-1.141" transform="translate(-2886.933 -2078.744)" fill="#acc5dd"/>
        <path id="Path_76332" data-name="Path 76332" d="M3122.117,2417.124a1.134,1.134,0,0,1,1.134-1.134h2.268a1.134,1.134,0,0,1,1.134,1.134v.013a1.134,1.134,0,0,1-1.134,1.134h-2.268a1.134,1.134,0,0,1-1.134-1.134Z" transform="translate(-2943.722 -2277.942)" fill="#acc5dd"/>
        <path id="Path_76333" data-name="Path 76333" d="M2834.317,2205.86a1.141,1.141,0,0,1,1.14-1.14h9.528a1.141,1.141,0,0,1,0,2.281h-9.528a1.141,1.141,0,0,1-1.14-1.141" transform="translate(-2672.366 -2078.744)" fill="#acc5dd"/>
        <path id="Path_76334" data-name="Path 76334" d="M2834.317,2417.093a1.1,1.1,0,0,1,1.1-1.1h13.329a1.1,1.1,0,0,1,1.1,1.1v.075a1.1,1.1,0,0,1-1.1,1.1H2835.42a1.1,1.1,0,0,1-1.1-1.1Z" transform="translate(-2672.366 -2277.942)" fill="#acc5dd"/>
        <path id="Path_76335" data-name="Path 76335" d="M2834.317,2704.458a1.059,1.059,0,0,1,1.059-1.059h16.816a1.059,1.059,0,0,1,1.059,1.059v.164a1.058,1.058,0,0,1-1.059,1.059h-16.816a1.059,1.059,0,0,1-1.059-1.059Z" transform="translate(-2672.366 -2548.93)" fill="#acc5dd"/>
        <path id="Path_76336" data-name="Path 76336" d="M2834.317,3135.462a1.052,1.052,0,0,1,1.052-1.052h16.83a1.051,1.051,0,0,1,1.052,1.052v.177a1.052,1.052,0,0,1-1.052,1.052h-16.83a1.053,1.053,0,0,1-1.052-1.052Z" transform="translate(-2672.366 -2955.313)" fill="#acc5dd"/>
        <path id="Path_76337" data-name="Path 76337" d="M3186.9,2704.529a1.13,1.13,0,0,1,1.129-1.129h8.347a1.13,1.13,0,0,1,1.13,1.129v.022a1.129,1.129,0,0,1-1.13,1.129h-8.347a1.129,1.129,0,0,1-1.129-1.129Z" transform="translate(-3004.8 -2548.93)" fill="#acc5dd"/>
        <path id="Path_76338" data-name="Path 76338" d="M3186.9,3135.321a.91.91,0,0,1,.91-.911h8.785a.911.911,0,0,1,.911.911v.459a.911.911,0,0,1-.911.911h-8.785a.911.911,0,0,1-.91-.911Z" transform="translate(-3004.8 -2955.313)" fill="#acc5dd"/>
        <path id="Path_76339" data-name="Path 76339" d="M3284.457,2821.331a1.141,1.141,0,0,1,1.141-1.141h8.325a1.14,1.14,0,1,1,0,2.281H3285.6a1.141,1.141,0,0,1-1.141-1.14" transform="translate(-3096.786 -2659.047)" fill="#acc5dd"/>
        <path id="Path_76340" data-name="Path 76340" d="M3345.827,3032.512a1.052,1.052,0,0,1,1.052-1.052h4.995a1.052,1.052,0,0,1,1.053,1.052v.177a1.052,1.052,0,0,1-1.053,1.052h-4.995a1.052,1.052,0,0,1-1.052-1.052Z" transform="translate(-3154.649 -2858.245)" fill="#acc5dd"/>
        <path id="Path_76341" data-name="Path 76341" d="M3392.727,2704.529a1.13,1.13,0,0,1,1.129-1.129h2.8a1.129,1.129,0,0,1,1.129,1.129v.022a1.129,1.129,0,0,1-1.129,1.129h-2.8a1.129,1.129,0,0,1-1.129-1.129Z" transform="translate(-3198.869 -2548.93)" fill="#acc5dd"/>
        <path id="Path_76342" data-name="Path 76342" d="M3392.727,3135.539a1.129,1.129,0,0,1,1.129-1.129h2.8a1.129,1.129,0,0,1,1.129,1.129v.022a1.129,1.129,0,0,1-1.129,1.13h-2.8a1.13,1.13,0,0,1-1.129-1.13Z" transform="translate(-3198.869 -2955.313)" fill="#acc5dd"/>
        <path id="Path_76343" data-name="Path 76343" d="M3175.637,2821.331a1.141,1.141,0,0,1,1.14-1.141h2.782a1.14,1.14,0,0,1,0,2.281h-2.782a1.14,1.14,0,0,1-1.14-1.14" transform="translate(-2994.183 -2659.047)" fill="#acc5dd"/>
        <path id="Path_76344" data-name="Path 76344" d="M3219.937,3032.508a1.048,1.048,0,0,1,1.048-1.048h3.723a1.048,1.048,0,0,1,1.048,1.048v.185a1.048,1.048,0,0,1-1.048,1.048h-3.723a1.048,1.048,0,0,1-1.048-1.048Z" transform="translate(-3035.952 -2858.245)" fill="#acc5dd"/>
        <path id="Path_76345" data-name="Path 76345" d="M3061.887,2821.331a1.141,1.141,0,0,1,1.141-1.141h2.782a1.14,1.14,0,1,1,0,2.281h-2.782a1.141,1.141,0,0,1-1.141-1.14" transform="translate(-2886.933 -2659.047)" fill="#acc5dd"/>
        <path id="Path_76346" data-name="Path 76346" d="M3122.117,3032.594a1.134,1.134,0,0,1,1.134-1.134h2.268a1.134,1.134,0,0,1,1.134,1.134v.014a1.134,1.134,0,0,1-1.134,1.134h-2.268a1.134,1.134,0,0,1-1.134-1.134Z" transform="translate(-2943.722 -2858.245)" fill="#acc5dd"/>
        <path id="Path_76347" data-name="Path 76347" d="M2834.317,2821.331a1.141,1.141,0,0,1,1.14-1.141h9.528a1.14,1.14,0,0,1,0,2.281h-9.528a1.141,1.141,0,0,1-1.14-1.14" transform="translate(-2672.366 -2659.047)" fill="#acc5dd"/>
        <path id="Path_76348" data-name="Path 76348" d="M2834.317,3032.563a1.1,1.1,0,0,1,1.1-1.1h13.329a1.1,1.1,0,0,1,1.1,1.1v.075a1.1,1.1,0,0,1-1.1,1.1H2835.42a1.1,1.1,0,0,1-1.1-1.1Z" transform="translate(-2672.366 -2858.245)" fill="#acc5dd"/>
        <path id="Path_76349" data-name="Path 76349" d="M2569.354,1367.1a6.557,6.557,0,1,0,6.559,6.557,6.557,6.557,0,0,0-6.559-6.557m0,.888a5.668,5.668,0,1,1-5.668,5.669,5.669,5.669,0,0,1,5.668-5.669" transform="translate(-2416.361 -1288.985)" fill="#acc5dd"/>
        <path id="Path_76350" data-name="Path 76350" d="M2616.479,1465.118a.475.475,0,0,1,.712-.627l2.311,2.62a.475.475,0,1,1-.712.628Z" transform="translate(-2466.864 -1380.659)" fill="#acc5dd"/>
        <path id="Path_76351" data-name="Path 76351" d="M2662.048,1437.7a.475.475,0,0,0-.713-.628l-3.693,4.187a.475.475,0,1,0,.712.628Z" transform="translate(-2505.675 -1354.804)" fill="#acc5dd"/>
        <path id="Path_76352" data-name="Path 76352" d="M2569.354,2023.07a6.557,6.557,0,1,0,6.559,6.557,6.557,6.557,0,0,0-6.559-6.557m0,.889a5.668,5.668,0,1,1-5.668,5.669,5.669,5.669,0,0,1,5.668-5.669" transform="translate(-2416.361 -1907.473)" fill="#acc5dd"/>
        <path id="Path_76353" data-name="Path 76353" d="M2616.479,2121.093a.475.475,0,1,1,.712-.628l2.311,2.62a.475.475,0,1,1-.712.628Z" transform="translate(-2466.864 -1999.151)" fill="#acc5dd"/>
        <path id="Path_76354" data-name="Path 76354" d="M2662.048,2093.666a.475.475,0,0,0-.713-.628l-3.693,4.188a.475.475,0,1,0,.712.628Z" transform="translate(-2505.675 -1973.292)" fill="#acc5dd"/>
        <path id="Path_76355" data-name="Path 76355" d="M2569.354,2638.54a6.557,6.557,0,1,0,6.559,6.557,6.557,6.557,0,0,0-6.559-6.557m0,.889a5.669,5.669,0,1,1-5.668,5.668,5.669,5.669,0,0,1,5.668-5.668" transform="translate(-2416.361 -2487.776)" fill="#acc5dd"/>
        <path id="Path_76356" data-name="Path 76356" d="M2616.479,2736.566a.475.475,0,1,1,.712-.628l2.311,2.62a.475.475,0,0,1-.712.628Z" transform="translate(-2466.864 -2579.457)" fill="#acc5dd"/>
        <path id="Path_76357" data-name="Path 76357" d="M2662.048,2709.136a.475.475,0,0,0-.713-.628l-3.693,4.188a.475.475,0,0,0,.712.628Z" transform="translate(-2505.675 -2553.594)" fill="#acc5dd"/>
        <path id="Path_76358" data-name="Path 76358" d="M2569.354,1673.36a6.557,6.557,0,1,0,6.559,6.557,6.557,6.557,0,0,0-6.559-6.557m0,.888a5.669,5.669,0,1,1-5.668,5.669,5.669,5.669,0,0,1,5.668-5.669" transform="translate(-2416.361 -1577.746)" fill="#acc5dd"/>
        <path id="Path_76359" data-name="Path 76359" d="M2616.479,1771.386a.475.475,0,0,1,.712-.628l2.311,2.62a.475.475,0,0,1-.712.628Z" transform="translate(-2466.864 -1669.427)" fill="#acc5dd"/>
        <path id="Path_76360" data-name="Path 76360" d="M2662.048,1743.956a.475.475,0,1,0-.713-.628l-3.693,4.188a.475.475,0,0,0,.712.628Z" transform="translate(-2505.675 -1643.564)" fill="#acc5dd"/>
        <path id="Path_76361" data-name="Path 76361" d="M2569.354,2329.33a6.557,6.557,0,1,0,6.559,6.557,6.557,6.557,0,0,0-6.559-6.557m0,.888a5.668,5.668,0,1,1-5.668,5.669,5.67,5.67,0,0,1,5.668-5.669" transform="translate(-2416.361 -2196.234)" fill="#acc5dd"/>
        <path id="Path_76362" data-name="Path 76362" d="M2616.479,2427.355a.475.475,0,0,1,.712-.628l2.311,2.621a.475.475,0,1,1-.712.628Z" transform="translate(-2466.864 -2287.915)" fill="#acc5dd"/>
        <path id="Path_76363" data-name="Path 76363" d="M2662.048,2399.926a.475.475,0,0,0-.713-.628l-3.693,4.188a.475.475,0,0,0,.712.628Z" transform="translate(-2505.675 -2262.053)" fill="#acc5dd"/>
        <path id="Path_76364" data-name="Path 76364" d="M2569.354,2944.8a6.557,6.557,0,1,0,6.559,6.558,6.557,6.557,0,0,0-6.559-6.558m0,.889a5.668,5.668,0,1,1-5.668,5.669,5.669,5.669,0,0,1,5.668-5.669" transform="translate(-2416.361 -2776.537)" fill="#acc5dd"/>
        <path id="Path_76365" data-name="Path 76365" d="M2616.479,3042.827a.475.475,0,0,1,.712-.628l2.311,2.62a.475.475,0,1,1-.712.628Z" transform="translate(-2466.864 -2868.219)" fill="#acc5dd"/>
        <path id="Path_76366" data-name="Path 76366" d="M2662.048,3015.4a.475.475,0,0,0-.713-.628l-3.693,4.188a.475.475,0,1,0,.712.628Z" transform="translate(-2505.675 -2842.356)" fill="#acc5dd"/>
        <path id="Path_76367" data-name="Path 76367" d="M1041.387,1199.536a11.485,11.485,0,0,0-11.443-11.526c-6.324,0-9.793,5.15-9.8,11.511" transform="translate(-961.857 -1120.128)" fill="#ddd"/>
        <path id="Path_76368" data-name="Path 76368" d="M1247.881,1188.05a11.484,11.484,0,0,1,11.443,11.525h-.006l-.021,17.733c.358,12.8,1.08,40.35,1.248,59.571.106,12.189,4.786,13.519,4.786,13.519l-55.17-.038c-.187,0-.372-.005-.558-.014-.185.008-.37.013-.557.013a11.484,11.484,0,0,1-11.443-11.524h.006l.021-17.735c-.358-12.805-1.081-40.349-1.248-59.57-.106-12.189-4.786-13.519-4.786-13.519l55.169.038c.187,0,.372.005.558.014.184-.009.37-.014.557-.013" transform="translate(-1123.51 -1120.128)" fill="#fff"/>
        <path id="Path_76369" data-name="Path 76369" d="M1539.1,2777.719l-41.1-.029-3.911,11.515,56.45.04Z" transform="translate(-1408.725 -2618.975)" fill="#ddd"/>
        <path id="Path_76370" data-name="Path 76370" d="M2281.777,2778.2a11.485,11.485,0,0,0,11.443,11.526c6.325,0,9.792-5.15,9.8-11.511" transform="translate(-2151.398 -2619.456)" fill="#ddd"/>
        <path id="Path_76371" data-name="Path 76371" d="M1317.82,2777.515c0,6.332-3.441,11.467-9.71,11.51a11.483,11.483,0,0,1-11.363-11.524h.006Z" transform="translate(-1222.652 -2618.796)" fill="#fff"/>
        <path id="Path_76372" data-name="Path 76372" d="M1020.147,1370.99l7.325-1.12,7.2,1.129s.047.42.074,3.848.04,9.854.04,9.854h-14.634Z" transform="translate(-961.857 -1291.597)" fill="#ddd"/>
        <path id="Path_76373" data-name="Path 76373" d="M1645.367,1437.688a1.059,1.059,0,0,1,1.059-1.058h16.817a1.058,1.058,0,0,1,1.059,1.058v.164a1.058,1.058,0,0,1-1.059,1.058h-16.817a1.059,1.059,0,0,1-1.059-1.058Z" transform="translate(-1551.352 -1354.542)" fill="#acc5dd"/>
        <path id="Path_76374" data-name="Path 76374" d="M1645.367,1868.682a1.052,1.052,0,0,1,1.052-1.052h16.83a1.052,1.052,0,0,1,1.052,1.052v.177a1.052,1.052,0,0,1-1.052,1.052h-16.83a1.052,1.052,0,0,1-1.052-1.052Z" transform="translate(-1551.352 -1760.915)" fill="#acc5dd"/>
        <path id="Path_76375" data-name="Path 76375" d="M1997.947,1437.759a1.129,1.129,0,0,1,1.129-1.129h8.347a1.129,1.129,0,0,1,1.13,1.129v.022a1.129,1.129,0,0,1-1.13,1.129h-8.347a1.129,1.129,0,0,1-1.129-1.129Z" transform="translate(-1883.786 -1354.542)" fill="#acc5dd"/>
        <path id="Path_76376" data-name="Path 76376" d="M1997.947,1868.541a.91.91,0,0,1,.91-.911h8.785a.911.911,0,0,1,.911.911V1869a.911.911,0,0,1-.911.911h-8.785a.91.91,0,0,1-.91-.911Z" transform="translate(-1883.786 -1760.915)" fill="#acc5dd"/>
        <path id="Path_76377" data-name="Path 76377" d="M2095.507,1554.551a1.141,1.141,0,0,1,1.14-1.141h8.325a1.141,1.141,0,1,1,0,2.281h-8.325a1.14,1.14,0,0,1-1.14-1.14" transform="translate(-1975.771 -1464.65)" fill="#acc5dd"/>
        <path id="Path_76378" data-name="Path 76378" d="M2156.877,1765.732a1.052,1.052,0,0,1,1.052-1.052h4.995a1.052,1.052,0,0,1,1.052,1.052v.177a1.052,1.052,0,0,1-1.052,1.052h-4.995a1.052,1.052,0,0,1-1.052-1.052Z" transform="translate(-2033.635 -1663.848)" fill="#acc5dd"/>
        <path id="Path_76379" data-name="Path 76379" d="M2203.777,1437.759a1.129,1.129,0,0,1,1.129-1.129h2.8a1.129,1.129,0,0,1,1.129,1.129v.022a1.129,1.129,0,0,1-1.129,1.129h-2.8a1.129,1.129,0,0,1-1.129-1.129Z" transform="translate(-2077.855 -1354.542)" fill="#acc5dd"/>
        <path id="Path_76380" data-name="Path 76380" d="M2203.777,1868.76a1.129,1.129,0,0,1,1.129-1.13h2.8a1.129,1.129,0,0,1,1.129,1.13v.022a1.129,1.129,0,0,1-1.129,1.129h-2.8a1.129,1.129,0,0,1-1.129-1.129Z" transform="translate(-2077.855 -1760.915)" fill="#acc5dd"/>
        <path id="Path_76381" data-name="Path 76381" d="M1986.687,1554.551a1.141,1.141,0,0,1,1.141-1.141h2.782a1.141,1.141,0,0,1,0,2.281h-2.782a1.14,1.14,0,0,1-1.141-1.14" transform="translate(-1873.169 -1464.65)" fill="#acc5dd"/>
        <path id="Path_76382" data-name="Path 76382" d="M2030.987,1765.728a1.048,1.048,0,0,1,1.048-1.048h3.724a1.048,1.048,0,0,1,1.047,1.048v.186a1.047,1.047,0,0,1-1.047,1.047h-3.724a1.048,1.048,0,0,1-1.048-1.047Z" transform="translate(-1914.938 -1663.848)" fill="#acc5dd"/>
        <path id="Path_76383" data-name="Path 76383" d="M1872.937,1554.551a1.141,1.141,0,0,1,1.141-1.141h2.782a1.141,1.141,0,0,1,0,2.281h-2.782a1.141,1.141,0,0,1-1.141-1.14" transform="translate(-1765.919 -1464.65)" fill="#acc5dd"/>
        <path id="Path_76384" data-name="Path 76384" d="M1933.167,1765.814a1.134,1.134,0,0,1,1.134-1.134h2.267a1.134,1.134,0,0,1,1.134,1.134v.013a1.133,1.133,0,0,1-1.134,1.134H1934.3a1.134,1.134,0,0,1-1.134-1.134Z" transform="translate(-1822.707 -1663.848)" fill="#acc5dd"/>
        <path id="Path_76385" data-name="Path 76385" d="M1645.367,1554.551a1.141,1.141,0,0,1,1.14-1.141h9.527a1.141,1.141,0,0,1,0,2.281h-9.527a1.14,1.14,0,0,1-1.14-1.14" transform="translate(-1551.352 -1464.65)" fill="#acc5dd"/>
        <path id="Path_76386" data-name="Path 76386" d="M1645.367,1765.783a1.1,1.1,0,0,1,1.1-1.1H1659.8a1.1,1.1,0,0,1,1.1,1.1v.075a1.1,1.1,0,0,1-1.1,1.1H1646.47a1.1,1.1,0,0,1-1.1-1.1Z" transform="translate(-1551.352 -1663.848)" fill="#acc5dd"/>
        <path id="Path_76387" data-name="Path 76387" d="M1645.367,2093.658a1.058,1.058,0,0,1,1.059-1.058h16.817a1.058,1.058,0,0,1,1.059,1.058v.164a1.058,1.058,0,0,1-1.059,1.058h-16.817a1.059,1.059,0,0,1-1.059-1.058Z" transform="translate(-1551.352 -1973.031)" fill="#acc5dd"/>
        <path id="Path_76388" data-name="Path 76388" d="M1645.367,2524.652a1.052,1.052,0,0,1,1.052-1.052h16.83a1.052,1.052,0,0,1,1.052,1.052v.177a1.052,1.052,0,0,1-1.052,1.052h-16.83a1.052,1.052,0,0,1-1.052-1.052Z" transform="translate(-1551.352 -2379.404)" fill="#acc5dd"/>
        <path id="Path_76389" data-name="Path 76389" d="M1997.947,2093.729a1.129,1.129,0,0,1,1.129-1.129h8.347a1.129,1.129,0,0,1,1.13,1.129v.022a1.129,1.129,0,0,1-1.13,1.129h-8.347a1.129,1.129,0,0,1-1.129-1.129Z" transform="translate(-1883.786 -1973.031)" fill="#acc5dd"/>
        <path id="Path_76390" data-name="Path 76390" d="M1997.947,2524.511a.91.91,0,0,1,.91-.911h8.785a.911.911,0,0,1,.911.911v.459a.911.911,0,0,1-.911.911h-8.785a.91.91,0,0,1-.91-.911Z" transform="translate(-1883.786 -2379.404)" fill="#acc5dd"/>
        <path id="Path_76391" data-name="Path 76391" d="M2095.507,2210.53a1.14,1.14,0,0,1,1.14-1.14h8.325a1.14,1.14,0,1,1,0,2.281h-8.325a1.14,1.14,0,0,1-1.14-1.141" transform="translate(-1975.771 -2083.147)" fill="#acc5dd"/>
        <path id="Path_76392" data-name="Path 76392" d="M2156.877,2421.7a1.053,1.053,0,0,1,1.052-1.052h4.995a1.053,1.053,0,0,1,1.052,1.052v.176a1.052,1.052,0,0,1-1.052,1.052h-4.995a1.052,1.052,0,0,1-1.052-1.052Z" transform="translate(-2033.635 -2282.336)" fill="#acc5dd"/>
        <path id="Path_76393" data-name="Path 76393" d="M2203.777,2093.729a1.129,1.129,0,0,1,1.129-1.129h2.8a1.129,1.129,0,0,1,1.129,1.129v.022a1.129,1.129,0,0,1-1.129,1.129h-2.8a1.129,1.129,0,0,1-1.129-1.129Z" transform="translate(-2077.855 -1973.031)" fill="#acc5dd"/>
        <path id="Path_76394" data-name="Path 76394" d="M2203.777,2524.729a1.129,1.129,0,0,1,1.129-1.129h2.8a1.129,1.129,0,0,1,1.129,1.129v.022a1.129,1.129,0,0,1-1.129,1.129h-2.8a1.129,1.129,0,0,1-1.129-1.129Z" transform="translate(-2077.855 -2379.404)" fill="#acc5dd"/>
        <path id="Path_76395" data-name="Path 76395" d="M1986.687,2210.53a1.14,1.14,0,0,1,1.141-1.14h2.782a1.14,1.14,0,1,1,0,2.281h-2.782a1.14,1.14,0,0,1-1.141-1.141" transform="translate(-1873.169 -2083.147)" fill="#acc5dd"/>
        <path id="Path_76396" data-name="Path 76396" d="M2030.987,2421.7a1.048,1.048,0,0,1,1.048-1.048h3.724a1.048,1.048,0,0,1,1.047,1.048v.186a1.047,1.047,0,0,1-1.047,1.047h-3.724a1.048,1.048,0,0,1-1.048-1.047Z" transform="translate(-1914.938 -2282.336)" fill="#acc5dd"/>
        <path id="Path_76397" data-name="Path 76397" d="M1872.937,2210.53a1.14,1.14,0,0,1,1.141-1.14h2.782a1.14,1.14,0,1,1,0,2.281h-2.782a1.141,1.141,0,0,1-1.141-1.141" transform="translate(-1765.919 -2083.147)" fill="#acc5dd"/>
        <path id="Path_76398" data-name="Path 76398" d="M1933.167,2421.784a1.134,1.134,0,0,1,1.134-1.134h2.267a1.134,1.134,0,0,1,1.134,1.134v.013a1.134,1.134,0,0,1-1.134,1.134H1934.3a1.134,1.134,0,0,1-1.134-1.134Z" transform="translate(-1822.707 -2282.336)" fill="#acc5dd"/>
        <path id="Path_76399" data-name="Path 76399" d="M1645.367,2210.53a1.14,1.14,0,0,1,1.14-1.14h9.527a1.14,1.14,0,1,1,0,2.281h-9.527a1.14,1.14,0,0,1-1.14-1.141" transform="translate(-1551.352 -2083.147)" fill="#acc5dd"/>
        <path id="Path_76400" data-name="Path 76400" d="M1645.367,2421.753a1.1,1.1,0,0,1,1.1-1.1H1659.8a1.1,1.1,0,0,1,1.1,1.1v.075a1.1,1.1,0,0,1-1.1,1.1H1646.47a1.1,1.1,0,0,1-1.1-1.1Z" transform="translate(-1551.352 -2282.336)" fill="#acc5dd"/>
        <path id="Path_76401" data-name="Path 76401" d="M1380.4,1371.76a6.558,6.558,0,1,0,6.558,6.557,6.557,6.557,0,0,0-6.558-6.557m0,.889a5.668,5.668,0,1,1-5.668,5.668,5.669,5.669,0,0,1,5.668-5.668" transform="translate(-1295.346 -1293.379)" fill="#acc5dd"/>
        <path id="Path_76402" data-name="Path 76402" d="M1427.533,1469.787a.475.475,0,0,1,.712-.628l2.311,2.62a.475.475,0,0,1-.713.628Z" transform="translate(-1345.853 -1385.062)" fill="#acc5dd"/>
        <path id="Path_76403" data-name="Path 76403" d="M1473.1,1442.357a.475.475,0,0,0-.712-.628l-3.693,4.188a.475.475,0,0,0,.712.628Z" transform="translate(-1384.661 -1359.199)" fill="#acc5dd"/>
        <path id="Path_76404" data-name="Path 76404" d="M1380.4,2027.73a6.558,6.558,0,1,0,6.558,6.557,6.557,6.557,0,0,0-6.558-6.557m0,.889a5.668,5.668,0,1,1-5.668,5.668,5.669,5.669,0,0,1,5.668-5.668" transform="translate(-1295.346 -1911.867)" fill="#acc5dd"/>
        <path id="Path_76405" data-name="Path 76405" d="M1380.4,1678.03a6.557,6.557,0,1,0,6.558,6.557,6.557,6.557,0,0,0-6.558-6.557m0,.888a5.668,5.668,0,1,1-5.668,5.669,5.669,5.669,0,0,1,5.668-5.669" transform="translate(-1295.346 -1582.149)" fill="#acc5dd"/>
        <path id="Path_76406" data-name="Path 76406" d="M1427.533,1776.047a.475.475,0,0,1,.712-.628l2.311,2.62a.475.475,0,1,1-.713.628Z" transform="translate(-1345.853 -1673.822)" fill="#acc5dd"/>
        <path id="Path_76407" data-name="Path 76407" d="M1473.1,1748.623a.475.475,0,1,0-.712-.628l-3.693,4.187a.475.475,0,0,0,.712.628Z" transform="translate(-1384.661 -1647.964)" fill="#acc5dd"/>
        <path id="Path_76408" data-name="Path 76408" d="M1380.4,2334a6.557,6.557,0,1,0,6.558,6.557A6.557,6.557,0,0,0,1380.4,2334m0,.888a5.668,5.668,0,1,1-5.668,5.669,5.669,5.669,0,0,1,5.668-5.669" transform="translate(-1295.346 -2200.637)" fill="#acc5dd"/>
        <path id="Path_76409" data-name="Path 76409" d="M2856.307,1419.922a6.672,6.672,0,0,1,6.672-6.672h75.511a6.672,6.672,0,0,1,6.671,6.672v42.02a6.672,6.672,0,0,1-6.671,6.672h-75.511a6.672,6.672,0,0,1-6.672-6.672Z" transform="translate(-2693.1 -1332.498)" fill="#f3f9ff"/>
        <path id="Path_76410" data-name="Path 76410" d="M2856.307,1419.922a6.672,6.672,0,0,1,6.672-6.672h75.511a6.672,6.672,0,0,1,6.671,6.672v42.02a6.672,6.672,0,0,1-6.671,6.672h-75.511a6.672,6.672,0,0,1-6.672-6.672Z" transform="translate(-2693.1 -1332.498)" fill="none" stroke="#5c94ca" stroke-linejoin="round" stroke-width="15.711"/>
        <path id="Path_76411" data-name="Path 76411" d="M2862.978,1413.24a6.671,6.671,0,0,0-6.671,6.672v2.475h88.854v-2.475a6.671,6.671,0,0,0-6.671-6.672Z" transform="translate(-2693.1 -1332.489)" fill="#5791c8"/>
        <path id="Path_76412" data-name="Path 76412" d="M2963.674,1668.17a6.558,6.558,0,1,0,6.558,6.558,6.557,6.557,0,0,0-6.558-6.558m0,.889a5.668,5.668,0,1,1-5.668,5.669,5.669,5.669,0,0,1,5.668-5.669" transform="translate(-2788.15 -1572.852)" fill="#acc5dd"/>
        <path id="Path_76413" data-name="Path 76413" d="M3781.234,1668.17a6.558,6.558,0,1,0,6.559,6.558,6.557,6.557,0,0,0-6.559-6.558m0,.889a5.668,5.668,0,1,1-5.668,5.669,5.669,5.669,0,0,1,5.668-5.669" transform="translate(-3558.995 -1572.852)" fill="#acc5dd"/>
        <path id="Path_76414" data-name="Path 76414" d="M2963.674,2018.2a6.558,6.558,0,1,0,6.558,6.558,6.557,6.557,0,0,0-6.558-6.558m0,.889a5.668,5.668,0,1,1-5.668,5.669,5.669,5.669,0,0,1,5.668-5.669" transform="translate(-2788.15 -1902.882)" fill="#acc5dd"/>
        <path id="Path_76415" data-name="Path 76415" d="M3781.234,2018.2a6.558,6.558,0,1,0,6.559,6.558,6.557,6.557,0,0,0-6.559-6.558m0,.889a5.668,5.668,0,1,1-5.668,5.669,5.669,5.669,0,0,1,5.668-5.669" transform="translate(-3558.995 -1902.882)" fill="#acc5dd"/>
        <path id="Path_76416" data-name="Path 76416" d="M3210.917,1698.153h3.231l.643-2.25h4.008l.643,2.25h3.67l-3.839-12.093h-4.482Zm5.886-9.285,1.319,4.651h-2.655Z" transform="translate(-3027.448 -1589.72)" fill="#acc5dd"/>
        <path id="Path_76417" data-name="Path 76417" d="M3231.5,2048.183h5.446c2.993,0,4.4-1.2,4.4-3.366v-.068a2.628,2.628,0,0,0-2.418-2.824,2.491,2.491,0,0,0,2.046-2.6v-.068c0-1.877-1.218-3.163-4.076-3.163h-5.4Zm3.383-7.29v-2.5h1.319c1.049,0,1.488.372,1.488,1.2v.068c0,.862-.406,1.234-1.488,1.234Zm0,4.973v-2.858h1.336c1.218,0,1.708.473,1.708,1.387v.068c0,.9-.507,1.4-1.607,1.4Z" transform="translate(-3046.852 -1919.75)" fill="#acc5dd"/>
        <path id="Path_76418" data-name="Path 76418" d="M4038.675,1691.732c3.128,0,5.4-1.624,5.632-4.753h-3.45a2.082,2.082,0,0,1-2.25,1.979c-1.658,0-2.588-1.235-2.588-3.417v-.135c0-2.2.981-3.417,2.537-3.417a1.887,1.887,0,0,1,2.03,1.911h3.568c-.288-3.2-2.469-4.651-5.615-4.651a5.914,5.914,0,0,0-6.173,6.173v.135c0,3.7,2.081,6.173,6.309,6.173" transform="translate(-3801.959 -1583.299)" fill="#acc5dd"/>
        <path id="Path_76419" data-name="Path 76419" d="M4084.187,2039.243h4.38c4.263,0,6.5-2.283,6.5-6.055v-.135c0-3.755-2.182-5.9-6.478-5.9h-4.4Zm3.484-2.672v-6.748h.761c2.1,0,3.01.98,3.01,3.281v.135c0,2.249-.914,3.332-2.977,3.332Z" transform="translate(-3850.82 -1911.32)" fill="#acc5dd"/>
        <path id="Path_76420" data-name="Path 76420" d="M3167.867,1861.2a1.073,1.073,0,1,1,1.073,1.074,1.073,1.073,0,0,1-1.073-1.074" transform="translate(-2986.857 -1753.844)" fill="#acc5dd"/>
        <path id="Path_76421" data-name="Path 76421" d="M3167.867,2211.233a1.073,1.073,0,1,1,1.073,1.074,1.073,1.073,0,0,1-1.073-1.074" transform="translate(-2986.857 -2083.873)" fill="#acc5dd"/>
        <path id="Path_76422" data-name="Path 76422" d="M3994.8,2211.233a1.074,1.074,0,1,1,1.073,1.074,1.073,1.073,0,0,1-1.073-1.074" transform="translate(-3766.537 -2083.873)" fill="#acc5dd"/>
        <path id="Path_76423" data-name="Path 76423" d="M3985.427,1861.2a1.073,1.073,0,1,1,1.074,1.074,1.073,1.073,0,0,1-1.074-1.074" transform="translate(-3757.703 -1753.844)" fill="#acc5dd"/>
      </g>
    </g>
  </g>
</svg>
