<svg id="Group_72280" data-name="Group 72280" xmlns="http://www.w3.org/2000/svg" xmlns:xlink="http://www.w3.org/1999/xlink" width="14.489" height="16.205" viewBox="0 0 14.489 16.205">
  <defs>
    <clipPath id="clip-path">
      <rect id="Rectangle_9041" data-name="Rectangle 9041" width="14.489" height="16.205" fill="#a77719"/>
    </clipPath>
  </defs>
  <g id="Group_72279" data-name="Group 72279" clip-path="url(#clip-path)">
    <path id="Path_71805" data-name="Path 71805" d="M5.124,16.2a4.355,4.355,0,0,1-1.247-.591Q2.4,14.762.92,13.907A1.722,1.722,0,0,1,0,12.321Q0,7.075,0,1.829A1.768,1.768,0,0,1,1.828,0Q5.721,0,9.614,0a1.769,1.769,0,0,1,1.834,1.821c0,.7,0,1.4,0,2.1a.586.586,0,1,1-1.164.006c0-.7,0-1.4,0-2.1a.6.6,0,0,0-.653-.664q-3.347,0-6.694,0c-.039,0-.078.006-.159.012l.741.43C4.4,2.114,5.277,2.627,6.161,3.13A1.782,1.782,0,0,1,7.128,4.8c-.006,2.479,0,4.958,0,7.437v.221c.067,0,.123.008.178.008H9.582a.623.623,0,0,0,.7-.7c0-.6,0-1.2,0-1.8a.585.585,0,1,1,1.163,0c0,.617,0,1.234,0,1.851a1.747,1.747,0,0,1-1.735,1.8c-.79.025-1.582.007-2.373.008H7.125c0,.074,0,.135,0,.2a7.075,7.075,0,0,1-.025.9,1.743,1.743,0,0,1-1.4,1.452.937.937,0,0,0-.1.034Z" transform="translate(0 0)" fill="#a77719"/>
    <path id="Path_71806" data-name="Path 71806" d="M185.69,110.447c-.192-.188-.386-.373-.575-.563a.581.581,0,1,1,.813-.826q.791.786,1.577,1.578a.574.574,0,0,1-.005.869q-.786.791-1.577,1.577a.578.578,0,0,1-.846.023.586.586,0,0,1,.031-.847c.181-.184.364-.366.546-.55a.574.574,0,0,0,.038-.059H185.5q-1.977,0-3.955,0a1.011,1.011,0,0,1-.3-.035.577.577,0,0,1,.192-1.122c1.049,0,2.1,0,3.148,0h1.086l.017-.041" transform="translate(-173.212 -104.256)" fill="#a77719"/>
  </g>
</svg>
