<svg id="Group_72274" data-name="Group 72274" xmlns="http://www.w3.org/2000/svg" xmlns:xlink="http://www.w3.org/1999/xlink" width="14.365" height="18.848" viewBox="0 0 14.365 18.848">
  <defs>
    <clipPath id="clip-path">
      <rect id="Rectangle_9037" data-name="Rectangle 9037" width="14.365" height="18.848" fill="#a77719"/>
    </clipPath>
  </defs>
  <g id="Group_72273" data-name="Group 72273" clip-path="url(#clip-path)">
    <path id="Path_31373" data-name="Path 31373" d="M12.891,64.375H1.473a3.5,3.5,0,0,1-.52-.167A1.645,1.645,0,0,1,0,62.617Q0,57.26,0,51.9c0-.816,0-1.632,0-2.448A1.676,1.676,0,0,1,.623,48.1a2.208,2.208,0,0,1,1.635-.362c-.01.083-.016.155-.027.227a1.665,1.665,0,0,0,1.647,1.969q3.3.021,6.609,0a1.622,1.622,0,0,0,1.649-1.493,6.191,6.191,0,0,0,0-.709,2.643,2.643,0,0,1,1.276.163,1.647,1.647,0,0,1,.947,1.578q0,2.862,0,5.724,0,3.709,0,7.418a1.607,1.607,0,0,1-.689,1.427,4.292,4.292,0,0,1-.785.331M9.388,61.2c.248.251.47.478.694.7a.551.551,0,1,0,.8-.755c-.226-.24-.471-.461-.714-.7.05-.057.077-.089.106-.119.211-.214.431-.42.632-.643a.533.533,0,0,0-.019-.748.541.541,0,0,0-.749-.027c-.08.067-.151.144-.225.217l-.532.53c-.246-.253-.464-.494-.7-.717a.551.551,0,1,0-.749.808l.691.683c-.241.236-.462.448-.677.666a.555.555,0,1,0,.776.783c.218-.216.429-.438.667-.684m0-8.165c-.236-.242-.447-.465-.664-.681a.555.555,0,1,0-.777.783q.5.5,1,1a.563.563,0,0,0,.9-.005q.77-.766,1.536-1.536a1.173,1.173,0,0,0,.1-.109.549.549,0,0,0-.317-.881.568.568,0,0,0-.547.191c-.4.4-.8.807-1.23,1.235m0,3.312c-.129-.134-.234-.245-.341-.354s-.226-.225-.339-.338a.555.555,0,0,0-.533-.179.549.549,0,0,0-.268.936c.335.35.683.688,1.027,1.03a.57.57,0,0,0,.923-.006q.756-.754,1.51-1.51a1.311,1.311,0,0,0,.112-.122.549.549,0,0,0-.318-.88.569.569,0,0,0-.546.192c-.4.4-.8.807-1.227,1.232M4.414,53.254c.356,0,.712,0,1.068,0a.553.553,0,1,0-.008-1.1q-1.059,0-2.117,0a.553.553,0,1,0,.008,1.1c.35,0,.7,0,1.049,0m.017,3.867c.35,0,.7,0,1.049,0a.553.553,0,1,0,0-1.1q-1.059,0-2.117,0a.553.553,0,1,0,0,1.1c.356,0,.712,0,1.068,0M4.4,60.987c.356,0,.712,0,1.068,0a.554.554,0,1,0,0-1.1q-1.049,0-2.1,0a.554.554,0,1,0,0,1.1c.344,0,.687,0,1.031,0" transform="translate(0 -45.527)" fill="#a77719"/>
    <path id="Path_31374" data-name="Path 31374" d="M75.826,3.309c-1.031,0-2.063-.021-3.093.008-.659.018-.893-.353-.713-.977A1.649,1.649,0,0,1,73.631,1.1c.166,0,.332-.007.5,0A.174.174,0,0,0,74.32.979,1.583,1.583,0,0,1,75.743,0a1.521,1.521,0,0,1,1.5.817.469.469,0,0,0,.523.283,1.775,1.775,0,0,1,1.354.406,1.64,1.64,0,0,1,.572,1.248.55.55,0,0,1-.6.551q-1.629,0-3.259,0" transform="translate(-68.643 -0.001)" fill="#a77719"/>
  </g>
</svg>
