<svg id="Group_72282" data-name="Group 72282" xmlns="http://www.w3.org/2000/svg" xmlns:xlink="http://www.w3.org/1999/xlink" width="14.642" height="13.71" viewBox="0 0 14.642 13.71">
  <defs>
    <clipPath id="clip-path">
      <rect id="Rectangle_9042" data-name="Rectangle 9042" width="14.642" height="13.71" fill="#a77719"/>
    </clipPath>
  </defs>
  <g id="Group_72281" data-name="Group 72281" clip-path="url(#clip-path)">
    <path id="Path_71807" data-name="Path 71807" d="M0,2.226V2.054a.564.564,0,0,1,.407-.361Q2.888.877,5.366.052a.468.468,0,0,1,.656.223L7.227,2.082c.028.042.059.081.1.133.039-.056.07-.1.1-.14L8.611.292A.476.476,0,0,1,9.286.054L14.257,1.7c.4.133.493.41.255.761-.484.714-.967,1.428-1.455,2.139a.165.165,0,0,0,0,.223q.736,1.072,1.462,2.151a.44.44,0,0,1-.251.744L9.285,9.375a.474.474,0,0,1-.667-.227L7.413,7.341c-.027-.041-.057-.08-.094-.131L6.037,9.131c-.205.307-.342.356-.686.242Q2.878,8.553.405,7.735A.56.56,0,0,1,0,7.374V7.2c.054-.094.1-.193.163-.282q.71-1.052,1.427-2.1a.156.156,0,0,0,0-.211Q.871,3.561.162,2.508C.1,2.418.054,2.32,0,2.226M3.555,4.714c.055.023.083.037.112.047q1.786.6,3.574,1.187a.349.349,0,0,0,.2-.011q1.645-.544,3.288-1.1l.363-.123c-.063-.026-.091-.04-.12-.05Q9.19,4.073,7.4,3.482a.349.349,0,0,0-.2.011Q5.452,4.07,3.707,4.656c-.043.014-.084.032-.152.058" transform="translate(0 0)" fill="#a77719"/>
    <path id="Path_71808" data-name="Path 71808" d="M48.7,244.871c.057.017.107.03.156.046l3.182,1.06a1.3,1.3,0,0,0,1.646-.562l.578-.867c.034.043.061.074.083.107.175.261.348.523.524.784a1.3,1.3,0,0,0,1.6.547l3.2-1.066c.053-.018.107-.033.169-.053,0,.047.008.079.008.112q0,1.165,0,2.33a.448.448,0,0,1-.345.481q-2.525.844-5.052,1.68a.614.614,0,0,1-.36,0q-2.522-.83-5.038-1.676a.443.443,0,0,1-.357-.458c0-.8,0-1.592,0-2.388,0-.022,0-.045.009-.079" transform="translate(-46.949 -235.789)" fill="#a77719"/>
  </g>
</svg>
