<svg id="Group_31" data-name="Group 31" xmlns="http://www.w3.org/2000/svg" xmlns:xlink="http://www.w3.org/1999/xlink" width="135.248" height="48.486" viewBox="0 0 135.248 48.486">
  <defs>
    <clipPath id="clip-path">
      <rect id="Rectangle_17" data-name="Rectangle 17" width="135.248" height="48.486" fill="none"/>
    </clipPath>
  </defs>
  <g id="Group_30" data-name="Group 30" clip-path="url(#clip-path)">
    <path id="Path_22" data-name="Path 22" d="M236.28,86.767a9.191,9.191,0,0,1-3.7-.7,7.587,7.587,0,0,1-2.705-1.959,8.554,8.554,0,0,1-1.657-2.964,12.425,12.425,0,0,1,0-7.366,8.537,8.537,0,0,1,1.657-2.962,7.562,7.562,0,0,1,2.705-1.96,9.171,9.171,0,0,1,3.7-.708,11.573,11.573,0,0,1,2.7.295,9.868,9.868,0,0,1,2.372.909l-.853,2.64a8.267,8.267,0,0,0-3.949-1.015,4.873,4.873,0,0,0-4.054,1.709,7.489,7.489,0,0,0-1.361,4.778,7.42,7.42,0,0,0,1.373,4.774,4.877,4.877,0,0,0,4.042,1.709,8.4,8.4,0,0,0,1.909-.267,9.236,9.236,0,0,0,2.2-.854l.8,2.668a9.433,9.433,0,0,1-2.39.949,11.363,11.363,0,0,1-2.79.331" transform="translate(-176.195 -52.738)" fill="#fff"/>
    <path id="Path_23" data-name="Path 23" d="M322.55,79.865h-7.31v7.686h-3.47V69.568h3.47v7.31h7.31v-7.31h3.467V87.551H322.55Z" transform="translate(-241.288 -53.84)" fill="#fff"/>
    <path id="Path_24" data-name="Path 24" d="M403.874,80.642h4.482l-.884-2.7-1.333-4.589h-.053l-1.332,4.589Zm5.5,2.88H402.86L401.5,87.551h-3.63l6.486-17.983h3.521l6.485,17.983h-3.631Z" transform="translate(-307.922 -53.841)" fill="#fff"/>
    <rect id="Rectangle_16" data-name="Rectangle 16" width="3.468" height="17.983" transform="translate(111.655 15.728)" fill="#fff"/>
    <path id="Path_25" data-name="Path 25" d="M543.312,69.568h3.468V87.551h-3.468l-7.525-13.927V87.551H532.32V69.568h3.734L543.312,83.5Z" transform="translate(-411.979 -53.841)" fill="#fff"/>
    <path id="Path_26" data-name="Path 26" d="M231.872,3.1a3.706,3.706,0,0,0-2.907,1.166A4.844,4.844,0,0,0,227.92,7.6a4.85,4.85,0,0,0,1.035,3.31,3.669,3.669,0,0,0,2.9,1.174,5.4,5.4,0,0,0,2.4-.52l.308,1.035a5.588,5.588,0,0,1-1.236.448,6.679,6.679,0,0,1-1.484.153,5.908,5.908,0,0,1-2.288-.4,4.225,4.225,0,0,1-1.6-1.134,4.677,4.677,0,0,1-.94-1.763,8.056,8.056,0,0,1-.308-2.3,7.3,7.3,0,0,1,.34-2.27,5.015,5.015,0,0,1,.995-1.773,4.567,4.567,0,0,1,1.612-1.147,5.465,5.465,0,0,1,2.2-.415,6.874,6.874,0,0,1,1.457.137,5.8,5.8,0,0,1,1.15.383l-.307,1.037a5.408,5.408,0,0,0-2.283-.454" transform="translate(-175.455 -1.546)" fill="#fff"/>
    <path id="Path_27" data-name="Path 27" d="M279.65,12.181a3.663,3.663,0,0,0,1.576-.315,2.987,2.987,0,0,0,1.128-.914,4.119,4.119,0,0,0,.672-1.441,7.733,7.733,0,0,0,.218-1.91,7.723,7.723,0,0,0-.218-1.912,4.118,4.118,0,0,0-.672-1.441,2.979,2.979,0,0,0-1.128-.914,3.667,3.667,0,0,0-1.576-.316,3.735,3.735,0,0,0-1.588.316,2.973,2.973,0,0,0-1.134.914,4.08,4.08,0,0,0-.671,1.441,7.643,7.643,0,0,0-.22,1.912,7.652,7.652,0,0,0,.22,1.91,4.081,4.081,0,0,0,.671,1.441,2.981,2.981,0,0,0,1.134.914,3.731,3.731,0,0,0,1.588.315m0,1.019a5.054,5.054,0,0,1-2.154-.421,4.139,4.139,0,0,1-1.509-1.172,4.985,4.985,0,0,1-.88-1.782,8.336,8.336,0,0,1-.282-2.225,8.336,8.336,0,0,1,.282-2.229,4.955,4.955,0,0,1,.88-1.779A4.094,4.094,0,0,1,277.5,2.419a5.676,5.676,0,0,1,4.305,0,4.062,4.062,0,0,1,1.507,1.173,4.942,4.942,0,0,1,.881,1.779,8.382,8.382,0,0,1,.283,2.229,8.382,8.382,0,0,1-.283,2.225,4.972,4.972,0,0,1-.881,1.782A4.106,4.106,0,0,1,281.8,12.78a5.049,5.049,0,0,1-2.151.421" transform="translate(-212.695 -1.544)" fill="#fff"/>
    <path id="Path_28" data-name="Path 28" d="M335.261,11.777,332.1,4.394v9.163h-1.212V2.644h1.439l2.641,5.846c.074.173.162.363.258.574s.189.419.277.623.164.4.234.583.121.333.153.453h.049a4.757,4.757,0,0,1,.154-.453c.07-.185.149-.377.234-.583s.175-.413.268-.623.18-.4.268-.574l2.64-5.846h1.439V13.556H339.73V4.394l-3.158,7.383Z" transform="translate(-256.087 -2.046)" fill="#fff"/>
    <path id="Path_29" data-name="Path 29" d="M394.611,6.012a2.21,2.21,0,0,0-.6-1.635,2.384,2.384,0,0,0-1.75-.6h-2.282V8.311h2.185a2.513,2.513,0,0,0,1.8-.612,2.221,2.221,0,0,0,.649-1.687m1.229,0a3.56,3.56,0,0,1-.259,1.37,3.2,3.2,0,0,1-.737,1.082,3.38,3.38,0,0,1-1.157.723,4.268,4.268,0,0,1-1.524.257h-2.185v4.112h-1.231V2.644h3.513a4.261,4.261,0,0,1,1.513.257,3.218,3.218,0,0,1,1.127.716,3.092,3.092,0,0,1,.7,1.066,3.578,3.578,0,0,1,.243,1.328" transform="translate(-300.863 -2.046)" fill="#fff"/>
    <path id="Path_30" data-name="Path 30" d="M433.505,2.643h1.232v9.78h5.212v1.132h-6.444Z" transform="translate(-335.503 -2.046)" fill="#fff"/>
    <path id="Path_31" data-name="Path 31" d="M475.4,2.643h6.588V3.76H476.63v3.6h5.033V8.489H476.63v3.95h5.456v1.117H475.4Z" transform="translate(-367.926 -2.046)" fill="#fff"/>
    <path id="Path_32" data-name="Path 32" d="M522.928,3.73v9.778H521.7V3.73l-3.336.017V2.582h7.9V3.747Z" transform="translate(-401.175 -1.998)" fill="#fff"/>
    <path id="Path_33" data-name="Path 33" d="M566.7,2.643h6.591V3.76h-5.36v3.6h5.034V8.489h-5.034v3.95h5.457v1.117H566.7Z" transform="translate(-438.586 -2.046)" fill="#fff"/>
    <path id="Path_34" data-name="Path 34" d="M29.622,10.615l-1.633,6.273A9.35,9.35,0,0,0,16.908,31.95L6.665,31.929a17,17,0,0,1-1.842-7.708,17.735,17.735,0,0,1,9.291-15.5,27.9,27.9,0,0,0,4.96-2.968c.938-.782,1.755-1.876,2.029-4.568.462.55.954,1.13,1.449,1.689A17.739,17.739,0,0,0,25.4,5.637c1.95,1.29,3.9,1.8,5.97,3.086.425.264,2.525,1.887,2.956,2.237a10.629,10.629,0,0,1,1.065,1.134ZM38.867,0H6.233A6.248,6.248,0,0,0,0,6.232V33.855H22.55a9.361,9.361,0,0,0,7.729-14.634l1.205-5.888,5.888,1.206a17.893,17.893,0,0,1,2.9,10,17.121,17.121,0,0,1-2.631,9.32c-.005.008-.009.014-.014.019-.172.269-.355.531-.541.787-.05.07-.1.137-.154.206-.151.2-.308.4-.467.593l-.162.2c-.2.228-.4.452-.6.669l-.05.053c-.233.243-.473.477-.723.706-.036.032-.071.062-.106.094-.21.189-.426.374-.645.555l-.168.133c-.223.179-.452.349-.685.516-.034.026-.069.052-.105.077a17.049,17.049,0,0,1-1.74,1.075l-.1.055c-.274.144-.552.283-.835.414-.032.016-.065.031-.1.046a17.93,17.93,0,0,1-2.986,1.059l-.057.016a18.958,18.958,0,0,1-4.357.582H23.03c-.109,0-.218.008-.326.008-.054,0-.1-.008-.154-.008H.693A6.243,6.243,0,0,0,6.233,45.1H38.867a6.244,6.244,0,0,0,5.538-3.392H37.319l0,.007-5.174,0a18.664,18.664,0,0,0,8.049-7.858H45.1V6.232A6.248,6.248,0,0,0,38.867,0" transform="translate(0 0)" fill="#fff"/>
    <path id="Path_35" data-name="Path 35" d="M196.422,184.467l0,0,0,0" transform="translate(-152.017 -142.762)" fill="#1077bd"/>
    <text id="DOCTORS" transform="translate(87.704 45.59)" fill="#fff" font-size="10" font-family="Lato-BlackItalic, Lato" font-weight="800" font-style="italic"><tspan x="0" y="0" letter-spacing="0.06em">D</tspan><tspan y="0" letter-spacing="0.059em">O</tspan><tspan y="0" letter-spacing="0.06em">C</tspan><tspan y="0" letter-spacing="0.03em">T</tspan><tspan y="0" letter-spacing="0.06em">O</tspan><tspan y="0" letter-spacing="0.059em">R</tspan><tspan y="0">S</tspan></text>
    <path id="Path_36" data-name="Path 36" d="M246.5,175.765a.931.931,0,0,1-.83-.51l-2.633-5.2-.941,1.633a.93.93,0,0,1-.806.466h-11.7v-1.861h11.16l1.532-2.657a.93.93,0,0,1,1.636.044l2.377,4.694,2.281-7.265a.931.931,0,0,1,1.735-.107l2.407,5.29h9.7v1.861h-10.3a.93.93,0,0,1-.847-.545l-1.648-3.623-2.238,7.127a.93.93,0,0,1-.811.649c-.026,0-.051,0-.077,0" transform="translate(-177.687 -127.279)" fill="#fff"/>
  </g>
</svg>
